<svg width="40" height="40" viewBox="0 0 40 40" fill="none" xmlns="http://www.w3.org/2000/svg">
<path d="M36.5625 7.37906H32.2656V4.14812C32.2656 4.00308 32.208 3.86398 32.1054 3.76142C32.0029 3.65886 31.8638 3.60125 31.7188 3.60125H29.8125C29.1175 3.3875 24.6209 2.12312 20 3.57593C15.3794 2.12343 10.8834 3.38843 10.1875 3.60125H8.28125C8.13621 3.60125 7.99711 3.65886 7.89455 3.76142C7.79199 3.86398 7.73438 4.00308 7.73438 4.14812V7.37906H3.4375C3.29246 7.37906 3.15336 7.43668 3.0508 7.53924C2.94824 7.6418 2.89062 7.7809 2.89062 7.92594V29.6988C2.89062 29.8438 2.94824 29.9829 3.0508 30.0855C3.15336 30.188 3.29246 30.2456 3.4375 30.2456H16.2778L15.3031 34.1206H15.2163C14.5687 34.1213 13.9479 34.3787 13.49 34.8365C13.032 35.2943 12.7743 35.915 12.7734 36.5625C12.7734 36.7076 12.8311 36.8466 12.9336 36.9492C13.0362 37.0518 13.1753 37.1094 13.3203 37.1094H26.6797C26.8247 37.1094 26.9638 37.0518 27.0664 36.9492C27.1689 36.8466 27.2266 36.7076 27.2266 36.5625C27.2257 35.915 26.9681 35.2942 26.5103 34.8363C26.0524 34.3784 25.4316 34.1208 24.7841 34.12H24.6975L23.7228 30.245H36.5625C36.7075 30.245 36.8466 30.1874 36.9492 30.0848C37.0518 29.9823 37.1094 29.8432 37.1094 29.6981V7.92594C37.1094 7.7809 37.0518 7.6418 36.9492 7.53924C36.8466 7.43668 36.7075 7.37906 36.5625 7.37906V7.37906ZM8.28125 21.75H31.7188C31.8638 21.75 32.0029 21.6924 32.1054 21.5898C32.208 21.4873 32.2656 21.3482 32.2656 21.2031V10.2744H34.0819V25.5244H5.91812V10.2744H7.73438V21.2028C7.73433 21.2747 7.74845 21.3458 7.77591 21.4122C7.80338 21.4786 7.84365 21.5389 7.89444 21.5897C7.94523 21.6405 8.00553 21.6808 8.0719 21.7083C8.13827 21.7358 8.20941 21.75 8.28125 21.75V21.75ZM31.1719 20.6563H20.5469V20.3069C23.5355 19.6785 26.6256 19.7131 29.5994 20.4081C29.6798 20.4277 29.7637 20.4288 29.8446 20.4112C29.9256 20.3937 30.0015 20.358 30.0666 20.3068C30.1317 20.2557 30.1844 20.1904 30.2206 20.1159C30.2568 20.0414 30.2756 19.9597 30.2756 19.8769V4.695H31.1719V20.6563ZM29.1819 4.5625V19.1934C26.3324 18.6191 23.3972 18.6171 20.5469 19.1875V4.55656C24.2941 3.45531 28.0116 4.25 29.1819 4.56062V4.5625ZM19.4531 4.55093V19.1875C16.6028 18.6172 13.6675 18.6197 10.8181 19.1947V4.56062C11.9884 4.25 15.7072 3.44937 19.4531 4.55093V4.55093ZM8.82812 4.69531H9.72438V19.8769C9.72439 19.9597 9.74321 20.0414 9.77943 20.1159C9.81564 20.1904 9.86829 20.2557 9.93341 20.3068C9.99854 20.358 10.0744 20.3937 10.1554 20.4112C10.2363 20.4288 10.3202 20.4277 10.4006 20.4081C13.3748 19.7155 16.4643 19.6812 19.4531 20.3075V20.6563H8.82812V4.69531ZM26.0156 36.0159H13.9831C14.0892 35.7774 14.2621 35.5748 14.481 35.4325C14.6998 35.2902 14.9552 35.2143 15.2163 35.2141H24.7841C25.045 35.2143 25.3004 35.2901 25.5191 35.4323C25.7379 35.5746 25.9108 35.7772 26.0169 36.0156L26.0156 36.0159ZM23.5681 34.1203H16.4306L17.4053 30.2453H22.5938L23.5681 34.1203ZM36.0144 29.1516H3.98438V8.47281H7.73438V9.18062H5.37125C5.22621 9.18062 5.08711 9.23824 4.98455 9.3408C4.88199 9.44336 4.82437 9.58246 4.82437 9.7275V26.0713C4.82437 26.2163 4.88199 26.3554 4.98455 26.458C5.08711 26.5605 5.22621 26.6181 5.37125 26.6181H34.6284C34.7735 26.6181 34.9126 26.5605 35.0151 26.458C35.1177 26.3554 35.1753 26.2163 35.1753 26.0713V9.7275C35.1753 9.58246 35.1177 9.44336 35.0151 9.3408C34.9126 9.23824 34.7735 9.18062 34.6284 9.18062H32.2656V8.47281H36.0156L36.0144 29.1516Z" fill="#00B2CA"/>
<path d="M12.2103 8.06249C12.2397 8.05281 15.1819 7.11562 18.0606 8.06249C18.1293 8.08683 18.2022 8.09719 18.2749 8.09297C18.3476 8.08876 18.4188 8.07005 18.4842 8.03794C18.5496 8.00583 18.608 7.96097 18.6558 7.90601C18.7036 7.85104 18.74 7.78706 18.7628 7.71784C18.7855 7.64862 18.7942 7.57555 18.7883 7.50292C18.7825 7.43029 18.7621 7.35957 18.7285 7.29491C18.695 7.23024 18.6488 7.17295 18.5927 7.12638C18.5367 7.07982 18.4719 7.04492 18.4022 7.02374C15.1731 5.96124 12.0028 6.97968 11.8709 7.02374C11.7388 7.07315 11.6309 7.1717 11.5697 7.2988C11.5085 7.4259 11.4988 7.57173 11.5426 7.70582C11.5864 7.83991 11.6804 7.95188 11.8048 8.01835C11.9292 8.08481 12.0745 8.10063 12.2103 8.06249Z" fill="#00B2CA"/>
<path d="M12.2103 10.879C12.2397 10.8697 15.1819 9.93249 18.0606 10.879C18.1293 10.9034 18.2022 10.9137 18.2749 10.9095C18.3476 10.9053 18.4188 10.8866 18.4842 10.8545C18.5496 10.8224 18.608 10.7775 18.6558 10.7226C18.7036 10.6676 18.74 10.6036 18.7628 10.5344C18.7855 10.4652 18.7942 10.3921 18.7883 10.3195C18.7825 10.2468 18.7621 10.1761 18.7285 10.1115C18.695 10.0468 18.6488 9.98951 18.5927 9.94294C18.5367 9.89638 18.4719 9.86148 18.4022 9.8403C15.1731 8.77781 12.0028 9.79624 11.8709 9.8403C11.7356 9.88746 11.6242 9.98586 11.5607 10.1143C11.4972 10.2428 11.4866 10.391 11.5313 10.5272C11.576 10.6634 11.6723 10.7766 11.7996 10.8424C11.9269 10.9083 12.0749 10.9215 12.2119 10.8794L12.2103 10.879Z" fill="#00B2CA"/>
<path d="M12.2103 13.6959C12.2397 13.6863 15.1819 12.7491 18.0606 13.6959C18.1985 13.7412 18.3487 13.7298 18.4782 13.6643C18.6077 13.5988 18.7058 13.4846 18.7511 13.3467C18.7964 13.2089 18.785 13.0587 18.7195 12.9292C18.654 12.7997 18.5398 12.7015 18.4019 12.6563C15.1728 11.5937 12.0025 12.6122 11.8706 12.6563C11.7353 12.7034 11.6239 12.8018 11.5604 12.9303C11.4969 13.0587 11.4863 13.207 11.531 13.3432C11.5757 13.4793 11.672 13.5925 11.7993 13.6584C11.9266 13.7242 12.0746 13.7375 12.2116 13.6953L12.2103 13.6959Z" fill="#00B2CA"/>
<path d="M12.2109 16.5128C12.2403 16.5034 15.1691 15.5625 18.0606 16.5128C18.1293 16.5371 18.2022 16.5475 18.2749 16.5433C18.3477 16.5391 18.4188 16.5204 18.4842 16.4883C18.5496 16.4561 18.608 16.4113 18.6558 16.3563C18.7036 16.3014 18.74 16.2374 18.7628 16.1682C18.7855 16.0989 18.7942 16.0259 18.7884 15.9532C18.7825 15.8806 18.7621 15.8099 18.7286 15.7452C18.695 15.6806 18.6488 15.6233 18.5927 15.5767C18.5367 15.5301 18.4719 15.4952 18.4022 15.4741C15.1731 14.4116 12.0028 15.43 11.8709 15.4741C11.8012 15.4952 11.7364 15.5301 11.6804 15.5767C11.6243 15.6233 11.5782 15.6806 11.5446 15.7452C11.511 15.8099 11.4907 15.8806 11.4848 15.9532C11.4789 16.0259 11.4876 16.0989 11.5104 16.1682C11.5331 16.2374 11.5695 16.3014 11.6173 16.3563C11.6652 16.4113 11.7235 16.4561 11.7889 16.4883C11.8543 16.5204 11.9255 16.5391 11.9982 16.5433C12.071 16.5475 12.1438 16.5371 12.2125 16.5128H12.2109Z" fill="#00B2CA"/>
<path d="M21.7687 8.08906C21.8268 8.08901 21.8845 8.07973 21.9397 8.06156C24.8125 7.1175 27.7481 8.04875 27.7897 8.06156C27.9269 8.10474 28.0756 8.09211 28.2036 8.0264C28.3316 7.9607 28.4285 7.84722 28.4734 7.71054C28.5183 7.57386 28.5075 7.42501 28.4434 7.29622C28.3793 7.16743 28.267 7.06909 28.1309 7.0225C27.9972 6.97844 24.8281 5.96 21.5981 7.0225C21.4747 7.0632 21.3698 7.14654 21.3022 7.25758C21.2346 7.36862 21.2088 7.5001 21.2294 7.62844C21.2499 7.75679 21.3156 7.87361 21.4145 7.95796C21.5134 8.04231 21.6391 8.08868 21.7691 8.08875L21.7687 8.08906Z" fill="#00B2CA"/>
<path d="M21.7687 10.9063C21.8268 10.9062 21.8845 10.8969 21.9397 10.8788C24.8125 9.93469 27.7481 10.8659 27.7897 10.8788C27.9269 10.9219 28.0756 10.9093 28.2036 10.8436C28.3316 10.7779 28.4285 10.6644 28.4734 10.5277C28.5183 10.3911 28.5075 10.2422 28.4434 10.1134C28.3793 9.98462 28.267 9.88628 28.1309 9.83969C27.9972 9.79563 24.8281 8.77719 21.5981 9.83969C21.4745 9.88021 21.3693 9.96349 21.3015 10.0746C21.2338 10.1857 21.2078 10.3173 21.2284 10.4458C21.249 10.5743 21.3146 10.6912 21.4137 10.7756C21.5127 10.86 21.6386 10.9063 21.7687 10.9063Z" fill="#00B2CA"/>
<path d="M21.7687 13.7231C21.8268 13.7231 21.8845 13.7138 21.9397 13.6956C24.8125 12.7513 27.7481 13.6825 27.7897 13.6956C27.9275 13.7409 28.0777 13.7295 28.2071 13.6641C28.3366 13.5986 28.4347 13.4844 28.48 13.3466C28.5252 13.2087 28.5139 13.0586 28.4484 12.9291C28.383 12.7997 28.2688 12.7015 28.1309 12.6563C27.9972 12.6122 24.8281 11.5938 21.5981 12.6563C21.4747 12.697 21.3698 12.7803 21.3022 12.8913C21.2346 13.0024 21.2088 13.1339 21.2294 13.2622C21.2499 13.3905 21.3156 13.5074 21.4145 13.5917C21.5134 13.6761 21.6391 13.7224 21.7691 13.7225L21.7687 13.7231Z" fill="#00B2CA"/>
<path d="M28.1309 15.4741C27.9972 15.43 24.8281 14.4116 21.5981 15.4741C21.5287 15.4955 21.4642 15.5306 21.4085 15.5772C21.3528 15.6238 21.3069 15.6811 21.2736 15.7457C21.2402 15.8102 21.2201 15.8808 21.2143 15.9532C21.2085 16.0257 21.2173 16.0985 21.24 16.1676C21.2627 16.2366 21.299 16.3004 21.3466 16.3553C21.3943 16.4101 21.4524 16.4549 21.5176 16.4871C21.5827 16.5192 21.6537 16.538 21.7262 16.5425C21.7987 16.5469 21.8714 16.5368 21.94 16.5128C24.8125 15.5687 27.7491 16.4997 27.79 16.5128C27.9272 16.556 28.0759 16.5434 28.2039 16.4777C28.3319 16.4119 28.4288 16.2985 28.4737 16.1618C28.5186 16.0251 28.5078 15.8763 28.4437 15.7475C28.3796 15.6187 28.2674 15.5203 28.1313 15.4737L28.1309 15.4741Z" fill="#00B2CA"/>
</svg>
