<?xml version="1.0"?>
<svg xmlns="http://www.w3.org/2000/svg" height="512px" viewBox="0 0 512.001 512" width="512px"><g><path d="m472.101562 21.96875c-.070312-.660156-.101562-1.320312-.101562-1.972656 0-.648438.027344-1.308594.101562-1.96875.058594-.640625.160157-1.300782.289063-1.9375.128906-.640625.289063-1.273438.480469-1.902344.1875-.621094.40625-1.238281.65625-1.839844.25-.601562.53125-1.199218.84375-1.769531.300781-.570313.640625-1.140625 1-1.679687.359375-.550782.757812-1.082032 1.167968-1.582032.410157-.507812.859376-1 1.320313-1.460937.460937-.457031.949219-.90625 1.460937-1.316407.5-.410156 1.027344-.8125 1.578126-1.171874.539062-.359376 1.101562-.699219 1.679687-1 .570313-.308594 1.171875-.589844 1.773437-.839844.597657-.25 1.21875-.46875 1.839844-.660156.628906-.1875 1.257813-.351563 1.898438-.480469.640625-.128907 1.300781-.226563 1.9375-.2890628 1.3125-.1289062 2.632812-.1289062 3.941406 0 .648438.0624998 1.300781.1601558 1.941406.2890628.640625.132812 1.277344.292969 1.898438.480469.621094.191406 1.238281.410156 1.839844.660156.601562.25 1.199218.53125 1.769531.839844.582031.300781 1.140625.640624 1.679687 1 .550782.359374 1.082032.761718 1.582032 1.171874.507812.410157 1 .859376 1.460937 1.316407.457031.460937.910156.953125 1.320313 1.460937.40625.5.808593 1.03125 1.167968 1.582032.359375.539062.699219 1.109374 1 1.679687.308594.570313.589844 1.167969.839844 1.769531.25.601563.46875 1.21875.660156 1.839844.1875.628906.351563 1.261719.480469 1.902344.128906.636718.230469 1.296875.289063 1.9375.070312.660156.101562 1.320312.101562 1.96875 0 .652344-.03125 1.3125-.101562 1.972656-.058594.640625-.160157 1.300781-.289063 1.9375-.132813.632812-.292969 1.273438-.480469 1.902344-.191406.617187-.410156 1.238281-.660156 1.839844-.25.597656-.53125 1.199218-.839844 1.769531-.300781.570312-.640625 1.140625-1 1.679687-.359375.550782-.761718 1.082032-1.167968 1.582032-.410157.507812-.863282 1-1.320313 1.457031-.460937.472656-.953125.910156-1.460937 1.320312-.5.421875-1.03125.8125-1.582032 1.171875-.539062.359375-1.109375.699219-1.679687 1-.570313.308594-1.167969.589844-1.769531.839844-.601563.25-1.21875.46875-1.839844.660156-.628906.1875-1.261719.347656-1.898438.476563-.640625.132812-1.292968.230469-1.941406.292969-.648438.070312-1.320312.097656-1.96875.097656-.652344 0-1.3125-.027344-1.972656-.097656-.640625-.0625-1.300782-.160157-1.9375-.292969-.628906-.128907-1.273438-.289063-1.902344-.476563-.617188-.191406-1.238281-.410156-1.839844-.660156-.597656-.25-1.1875-.53125-1.769531-.839844-.570313-.300781-1.140625-.640625-1.679687-1-.550782-.359375-1.082032-.75-1.582032-1.171875-.507812-.410156-1-.851562-1.457031-1.320312-.460937-.457031-.910156-.949219-1.320313-1.457031-.410156-.5-.8125-1.03125-1.171874-1.582032-.359376-.539062-.699219-1.109375-1-1.679687-.308594-.570313-.589844-1.171875-.839844-1.769531-.25-.601563-.46875-1.222657-.660156-1.839844-.1875-.632813-.347657-1.273438-.476563-1.902344-.128906-.640625-.230469-1.300781-.289063-1.9375zm19.898438 372.03125c-11.050781 0-20 8.949219-20 20 0 11.039062 8.949219 20 20 20 11.039062 0 20-8.960938 20-20 0-11.050781-8.960938-20-20-20zm0-78c-11.050781 0-20 8.949219-20 20 0 11.039062 8.949219 20 20 20 11.039062 0 20-8.960938 20-20 0-11.050781-8.960938-20-20-20zm0-79c-11.050781 0-20 8.949219-20 20 0 11.039062 8.949219 20 20 20 11.039062 0 20-8.960938 20-20 0-11.050781-8.960938-20-20-20zm0-78c-11.050781 0-20 8.949219-20 20 0 11.039062 8.949219 20 20 20 11.039062 0 20-8.960938 20-20 0-11.050781-8.960938-20-20-20zm0-78c-11.050781 0-20 8.949219-20 20 0 11.039062 8.949219 20 20 20 11.039062 0 20-8.960938 20-20 0-11.050781-8.960938-20-20-20zm19.609375 407.089844c-.128906-.640625-.289063-1.269532-.480469-1.898438-.1875-.621094-.410156-1.242187-.660156-1.839844-.25-.601562-.527344-1.203124-.839844-1.773437-.300781-.578125-.640625-1.140625-1-1.679687-.359375-.550782-.757812-1.078126-1.167968-1.578126-.410157-.511718-.859376-1-1.320313-1.460937s-.949219-.910156-1.460937-1.320313c-.5-.417968-1.03125-.808593-1.578126-1.167968-.542968-.359375-1.101562-.699219-1.679687-1-.570313-.3125-1.171875-.59375-1.773437-.84375-.597657-.25-1.21875-.46875-1.839844-.65625-.621094-.191406-1.257813-.351563-1.898438-.480469s-1.289062-.230469-1.941406-.289063c-1.308594-.132812-2.628906-.132812-3.9375 0-.640625.058594-1.300781.160157-1.941406.289063-.636719.128906-1.269532.289063-1.898438.480469-.621094.1875-1.238281.40625-1.839844.65625-.601562.25-1.199218.53125-1.769531.84375-.582031.300781-1.140625.640625-1.683593 1-.546876.359375-1.078126.75-1.578126 1.167968-.511718.410157-1 .859376-1.460937 1.320313s-.910156.949219-1.320313 1.460937c-.40625.5-.808593 1.027344-1.167968 1.578126-.359375.539062-.699219 1.101562-1 1.679687-.3125.570313-.589844 1.171875-.839844 1.773437-.25.597657-.472656 1.21875-.660156 1.839844-.191406.628906-.351563 1.257813-.480469 1.898438s-.230469 1.300781-.289063 1.9375c-.070312.660156-.101562 1.320312-.101562 1.972656 0 .648438.03125 1.308594.101562 1.96875.058594.640625.160157 1.300781.289063 1.941406.128906.628906.289063 1.269532.480469 1.898438.1875.621094.410156 1.242187.660156 1.839844.25.601562.527344 1.199218.839844 1.773437.300781.566406.640625 1.136719 1 1.679687.359375.546876.761718 1.078126 1.167968 1.578126.410157.511718.859376 1 1.320313 1.460937s.949219.910156 1.460937 1.320313c.5.410156 1.03125.808593 1.578126 1.167968.542968.359375 1.113281.699219 1.683593 1 .578125.3125 1.167969.589844 1.769531.839844.601563.25 1.21875.472656 1.839844.660156.628906.191406 1.269532.351563 1.898438.480469.640625.128906 1.300781.230469 1.941406.289063.660156.070312 1.320312.101562 1.96875.101562s1.320312-.03125 1.972656-.101562c.648438-.058594 1.296875-.160157 1.9375-.289063s1.269532-.289063 1.898438-.480469c.621094-.1875 1.242187-.410156 1.839844-.660156.601562-.25 1.203124-.527344 1.773437-.839844.566406-.300781 1.140625-.640625 1.679687-1 .550782-.359375 1.078126-.757812 1.578126-1.167968.511718-.410157 1-.859376 1.460937-1.320313s.910156-.949219 1.320313-1.460937c.410156-.5.808593-1.03125 1.171874-1.578126.355469-.542968.699219-1.109374 1-1.679687.308594-.570313.589844-1.171875.839844-1.773437.25-.597657.46875-1.21875.660156-1.839844.1875-.628906.347657-1.269532.476563-1.898438.128906-.640625.230469-1.300781.289063-1.941406.070312-.660156.101562-1.320312.101562-1.96875s-.027344-1.3125-.101562-1.972656c-.058594-.636719-.160157-1.296875-.289063-1.9375zm-79-391c-.128906-.640625-.289063-1.269532-.480469-1.898438-.1875-.621094-.410156-1.242187-.660156-1.839844-.25-.601562-.527344-1.203124-.839844-1.773437-.300781-.566406-.640625-1.140625-1-1.679687-.359375-.550782-.757812-1.078126-1.167968-1.578126-.410157-.511718-.859376-1-1.320313-1.460937s-.949219-.910156-1.460937-1.320313c-.5-.417968-1.03125-.808593-1.578126-1.167968-.542968-.359375-1.101562-.699219-1.679687-1-.570313-.3125-1.171875-.589844-1.773437-.839844-.597657-.25-1.21875-.472656-1.839844-.660156-.628906-.191406-1.269532-.351563-1.898438-.480469-.640625-.128906-1.300781-.230469-1.941406-.289063-1.308594-.132812-2.628906-.132812-3.9375 0-.640625.058594-1.300781.160157-1.941406.289063-.636719.128906-1.269532.289063-1.898438.480469-.621094.1875-1.238281.410156-1.839844.660156-.601562.25-1.199218.527344-1.769531.839844-.570312.300781-1.140625.640625-1.683593 1-.546876.359375-1.078126.75-1.578126 1.167968-.511718.410157-1 .859376-1.460937 1.320313s-.910156.949219-1.320313 1.460937c-.40625.5-.808593 1.027344-1.167968 1.578126-.359375.539062-.699219 1.109374-1 1.679687-.3125.570313-.589844 1.171875-.839844 1.773437-.25.597657-.472656 1.21875-.660156 1.839844-.191406.628906-.351563 1.257813-.480469 1.898438s-.230469 1.300781-.289063 1.941406c-.070312.65625-.101562 1.316406-.101562 1.96875 0 .648438.03125 1.308594.101562 1.96875.058594.640625.160157 1.300781.289063 1.941406.128906.628906.289063 1.269532.480469 1.898438.1875.621094.410156 1.242187.660156 1.839844.25.601562.527344 1.199218.839844 1.773437.300781.566406.640625 1.136719 1 1.679687.359375.546876.761718 1.078126 1.167968 1.578126.410157.511718.859376 1 1.320313 1.460937s.949219.910156 1.460937 1.320313c.5.410156 1.03125.808593 1.578126 1.167968.542968.359375 1.113281.691406 1.683593 1 .566407.3125 1.167969.589844 1.769531.839844.601563.25 1.21875.472656 1.839844.660156.628906.191406 1.261719.351563 1.898438.480469.640625.128906 1.300781.21875 1.941406.289063.648438.070312 1.320312.101562 1.96875.101562s1.3125-.03125 1.972656-.101562c.636719-.070313 1.296875-.160157 1.9375-.289063.628906-.128906 1.269532-.289063 1.898438-.480469.621094-.1875 1.242187-.410156 1.839844-.660156.601562-.25 1.203124-.527344 1.773437-.839844.578125-.308594 1.140625-.640625 1.679687-1 .550782-.359375 1.078126-.757812 1.578126-1.167968.511718-.410157 1-.859376 1.460937-1.320313s.910156-.949219 1.320313-1.460937c.410156-.5.808593-1.03125 1.171874-1.578126.355469-.542968.699219-1.109374 1-1.679687.308594-.570313.589844-1.171875.839844-1.773437.25-.597657.46875-1.21875.660156-1.839844.1875-.628906.347657-1.269532.476563-1.898438.128906-.640625.230469-1.300781.289063-1.941406.070312-.660156.101562-1.320312.101562-1.96875s-.027344-1.3125-.101562-1.96875c-.058594-.640625-.160157-1.300781-.289063-1.941406zm-19.609375 296.910156c-11.039062 0-20 8.949219-20 20 0 11.039062 8.960938 20 20 20s20-8.960938 20-20c0-11.050781-8.960938-20-20-20zm0-78c-11.039062 0-20 8.949219-20 20 0 11.039062 8.960938 20 20 20s20-8.960938 20-20c0-11.050781-8.960938-20-20-20zm0-79c-11.039062 0-20 8.949219-20 20s8.960938 20 20 20 20-8.949219 20-20-8.960938-20-20-20zm0-78c-11.039062 0-20 8.949219-20 20 0 11.039062 8.960938 20 20 20s20-8.960938 20-20c0-11.050781-8.960938-20-20-20zm19.609375 329.089844c-.128906-.640625-.289063-1.269532-.480469-1.898438-.1875-.621094-.410156-1.242187-.660156-1.839844-.25-.601562-.527344-1.203124-.839844-1.773437-.300781-.578125-.640625-1.140625-1-1.679687-.359375-.550782-.757812-1.078126-1.167968-1.578126-.410157-.511718-.859376-1-1.320313-1.460937s-.949219-.910156-1.460937-1.320313c-.5-.417968-1.03125-.808593-1.578126-1.167968-.542968-.359375-1.101562-.699219-1.679687-1-.570313-.3125-1.171875-.59375-1.773437-.84375-.597657-.25-1.21875-.46875-1.839844-.65625-.628906-.191406-1.269532-.351563-1.898438-.480469-.640625-.128906-1.300781-.230469-1.941406-.289063-1.308594-.132812-2.628906-.132812-3.9375 0-.640625.058594-1.300781.160157-1.941406.289063-.636719.128906-1.269532.289063-1.898438.480469-.621094.1875-1.238281.40625-1.839844.65625-.601562.25-1.199218.53125-1.769531.84375-.582031.300781-1.140625.640625-1.683593 1-.546876.359375-1.078126.75-1.578126 1.167968-.511718.410157-1 .859376-1.460937 1.320313s-.910156.949219-1.320313 1.460937c-.40625.5-.808593 1.027344-1.167968 1.578126-.359375.539062-.699219 1.101562-1 1.679687-.3125.570313-.589844 1.171875-.839844 1.773437-.25.597657-.472656 1.21875-.660156 1.839844-.191406.628906-.351563 1.257813-.480469 1.898438s-.230469 1.300781-.289063 1.9375c-.070312.660156-.101562 1.320312-.101562 1.972656 0 .648438.03125 1.308594.101562 1.96875.058594.640625.160157 1.300781.289063 1.941406.128906.628906.289063 1.269532.480469 1.898438.1875.621094.410156 1.242187.660156 1.839844.25.601562.527344 1.199218.839844 1.773437.300781.566406.640625 1.136719 1 1.679687.359375.546876.761718 1.078126 1.167968 1.578126.410157.511718.859376 1 1.320313 1.460937s.949219.910156 1.460937 1.320313c.5.410156 1.03125.808593 1.578126 1.167968.542968.359375 1.113281.691406 1.683593 1 .566407.3125 1.167969.589844 1.769531.839844.601563.25 1.21875.472656 1.839844.660156.628906.191406 1.261719.351563 1.898438.480469.640625.128906 1.300781.21875 1.941406.289063.648438.070312 1.320312.101562 1.96875.101562s1.3125-.03125 1.972656-.101562c.636719-.070313 1.296875-.160157 1.9375-.289063.628906-.128906 1.269532-.289063 1.898438-.480469.621094-.1875 1.242187-.410156 1.839844-.660156.601562-.25 1.203124-.527344 1.773437-.839844.578125-.308594 1.140625-.640625 1.679687-1 .550782-.359375 1.078126-.757812 1.578126-1.167968.511718-.410157 1-.859376 1.460937-1.320313s.910156-.949219 1.320313-1.460937c.410156-.5.808593-1.03125 1.171874-1.578126.355469-.542968.699219-1.109374 1-1.679687.308594-.570313.589844-1.171875.839844-1.773437.25-.597657.46875-1.21875.660156-1.839844.1875-.628906.347657-1.269532.476563-1.898438.128906-.640625.230469-1.300781.289063-1.941406.070312-.660156.101562-1.320312.101562-1.96875s-.027344-1.3125-.101562-1.972656c-.058594-.636719-.160157-1.296875-.289063-1.9375zm-79-313c-.128906-.628906-.289063-1.269532-.480469-1.898438-.1875-.621094-.410156-1.242187-.660156-1.839844-.25-.601562-.527344-1.203124-.839844-1.773437-.300781-.566406-.640625-1.140625-1-1.679687-.359375-.550782-.757812-1.078126-1.167968-1.578126-.410157-.511718-.859376-1-1.320313-1.460937s-.949219-.910156-1.460937-1.320313c-.5-.410156-1.03125-.808593-1.578126-1.167968-.542968-.359375-1.101562-.699219-1.679687-1-.570313-.3125-1.171875-.589844-1.773437-.839844-.597657-.25-1.21875-.472656-1.839844-.660156-.628906-.191406-1.257813-.351563-1.898438-.480469s-1.289062-.230469-1.941406-.289063c-1.308594-.132812-2.628906-.132812-3.9375 0-.640625.058594-1.300781.160157-1.941406.289063-.628906.128906-1.269532.289063-1.898438.480469-.621094.1875-1.238281.410156-1.839844.660156-.601562.25-1.199218.527344-1.769531.839844-.570312.300781-1.140625.640625-1.683593 1-.546876.359375-1.078126.757812-1.578126 1.167968-.511718.410157-1 .859376-1.460937 1.320313s-.910156.949219-1.320313 1.460937c-.40625.5-.808593 1.027344-1.167968 1.578126-.359375.539062-.699219 1.109374-1 1.679687-.3125.570313-.589844 1.171875-.839844 1.773437-.25.597657-.472656 1.21875-.660156 1.839844-.191406.628906-.351563 1.269532-.480469 1.898438-.128906.640625-.230469 1.300781-.289063 1.941406-.070312.65625-.101562 1.316406-.101562 1.96875 0 .648438.03125 1.308594.101562 1.96875.058594.640625.160157 1.300781.289063 1.941406.128906.628906.289063 1.269532.480469 1.898438.1875.621094.410156 1.242187.660156 1.839844.25.601562.527344 1.199218.839844 1.773437.300781.578125.640625 1.136719 1 1.679687.359375.546876.761718 1.078126 1.167968 1.578126.410157.511718.859376 1 1.320313 1.460937.460937.46875.949219.910156 1.460937 1.320313.5.417968 1.03125.808593 1.578126 1.167968.542968.359375 1.113281.699219 1.683593 1 .566407.3125 1.167969.589844 1.769531.839844.601563.25 1.21875.472656 1.839844.660156.628906.191406 1.269532.351563 1.898438.480469.640625.128906 1.300781.230469 1.941406.289063.660156.070312 1.320312.101562 1.96875.101562s1.3125-.03125 1.972656-.101562c.636719-.058594 1.296875-.160157 1.9375-.289063.628906-.128906 1.269532-.289063 1.898438-.480469.621094-.1875 1.242187-.410156 1.839844-.660156.601562-.25 1.191406-.527344 1.773437-.839844.566406-.300781 1.140625-.640625 1.679687-1 .550782-.359375 1.078126-.75 1.578126-1.167968.511718-.410157 1-.851563 1.460937-1.320313.460937-.460937.910156-.949219 1.320313-1.460937.410156-.5.808593-1.03125 1.171874-1.578126.355469-.542968.699219-1.101562 1-1.679687.308594-.570313.589844-1.171875.839844-1.773437.25-.597657.46875-1.21875.660156-1.839844.1875-.628906.347657-1.269532.476563-1.898438.128906-.640625.222656-1.300781.289063-1.941406.0625-.660156.101562-1.320312.101562-1.96875s-.039062-1.3125-.101562-1.96875c-.070313-.640625-.160157-1.300781-.289063-1.941406zm-19.609375 218.910156c-11.050781 0-20 8.949219-20 20 0 11.039062 8.949219 20 20 20s20-8.960938 20-20c0-11.050781-8.949219-20-20-20zm0-78c-11.050781 0-20 8.949219-20 20 0 11.039062 8.949219 20 20 20s20-8.960938 20-20c0-11.050781-8.949219-20-20-20zm0-79c-11.050781 0-20 8.960938-20 20s8.949219 20 20 20 20-8.960938 20-20-8.949219-20-20-20zm19.609375 251.089844c-.128906-.628906-.289063-1.269532-.480469-1.898438-.1875-.621094-.410156-1.242187-.660156-1.839844-.25-.601562-.527344-1.203124-.839844-1.773437-.300781-.566406-.640625-1.140625-1-1.679687-.359375-.550782-.757812-1.078126-1.167968-1.578126-.410157-.511718-.859376-1-1.320313-1.460937s-.949219-.910156-1.460937-1.320313c-.5-.417968-1.03125-.808593-1.578126-1.167968-.542968-.359375-1.101562-.699219-1.679687-1-.570313-.3125-1.171875-.59375-1.773437-.84375-.597657-.25-1.21875-.46875-1.839844-.65625-.628906-.191406-1.257813-.351563-1.898438-.480469s-1.289062-.230469-1.941406-.289063c-1.308594-.132812-2.628906-.132812-3.9375 0-.640625.058594-1.300781.160157-1.941406.289063-.628906.128906-1.269532.289063-1.898438.480469-.621094.1875-1.238281.40625-1.839844.65625-.601562.25-1.199218.53125-1.769531.84375-.570312.300781-1.140625.640625-1.683593 1-.546876.359375-1.078126.75-1.578126 1.167968-.511718.410157-1 .859376-1.460937 1.320313s-.910156.949219-1.320313 1.460937c-.40625.5-.808593 1.027344-1.167968 1.578126-.359375.539062-.699219 1.109374-1 1.679687-.3125.570313-.589844 1.171875-.839844 1.773437-.25.597657-.472656 1.21875-.660156 1.839844-.191406.628906-.351563 1.269532-.480469 1.898438-.128906.640625-.230469 1.300781-.289063 1.9375-.070312.660156-.101562 1.320312-.101562 1.972656 0 .648438.03125 1.308594.101562 1.96875.058594.640625.160157 1.300781.289063 1.941406.128906.628906.289063 1.269532.480469 1.898438.1875.621094.410156 1.242187.660156 1.839844.25.601562.527344 1.199218.839844 1.773437.300781.566406.640625 1.136719 1 1.679687.359375.546876.761718 1.078126 1.167968 1.578126.410157.511718.859376 1 1.320313 1.460937s.949219.910156 1.460937 1.320313c.5.410156 1.03125.808593 1.578126 1.167968.542968.359375 1.113281.691406 1.683593 1 .566407.3125 1.167969.589844 1.769531.839844.601563.25 1.21875.472656 1.839844.660156.628906.191406 1.269532.351563 1.898438.480469.640625.128906 1.300781.21875 1.941406.289063.660156.070312 1.320312.101562 1.96875.101562s1.3125-.03125 1.972656-.101562c.636719-.070313 1.296875-.160157 1.9375-.289063.628906-.128906 1.269532-.289063 1.898438-.480469.621094-.1875 1.242187-.410156 1.839844-.660156.601562-.25 1.191406-.527344 1.773437-.839844.566406-.308594 1.140625-.640625 1.679687-1 .550782-.359375 1.078126-.757812 1.578126-1.167968.511718-.410157 1-.859376 1.460937-1.320313s.910156-.949219 1.320313-1.460937c.410156-.5.808593-1.03125 1.171874-1.578126.355469-.542968.699219-1.109374 1-1.679687.308594-.570313.589844-1.171875.839844-1.773437.25-.597657.46875-1.21875.660156-1.839844.1875-.628906.347657-1.269532.476563-1.898438.128906-.640625.222656-1.300781.289063-1.941406.0625-.660156.101562-1.320312.101562-1.96875s-.039062-1.3125-.101562-1.972656c-.070313-.636719-.160157-1.296875-.289063-1.9375zm-98.609375-247.089844c-11.046875 0-20 8.953125-20 20v231c0 11.046875 8.953125 20 20 20s20-8.953125 20-20v-231c0-11.046875-8.953125-20-20-20zm-79 80c-11.046875 0-20 8.953125-20 20v151c0 11.046875 8.953125 20 20 20s20-8.953125 20-20v-151c0-11.046875-8.953125-20-20-20zm-79 70c-11.046875 0-20 8.953125-20 20v81c0 11.046875 8.953125 20 20 20s20-8.953125 20-20v-81c0-11.046875-8.953125-20-20-20zm-77 81c-11.046875 0-20 8.953125-20 20s8.953125 20 20 20 20-8.953125 20-20-8.953125-20-20-20zm0 0" data-original="#000000" class="active-path" data-old_color="#000000" fill="#00B2CA"/></g> </svg>
