<svg width="40" height="40" viewBox="0 0 40 40" fill="none" xmlns="http://www.w3.org/2000/svg">
<path d="M6.875 28.125H8.125V29.375H6.875V28.125Z" fill="#00B2CA"/>
<path d="M9.375 28.125H10.625V29.375H9.375V28.125Z" fill="#00B2CA"/>
<path d="M4.375 28.125H5.625V29.375H4.375V28.125Z" fill="#00B2CA"/>
<path d="M36.25 5.625H34.34C34.3588 5.46563 34.375 5.30625 34.375 5.14437V5C34.375 3.71187 33.3963 2.64875 32.1438 2.51437C30.8488 1.29437 29.165 0.625 27.3781 0.625C26.1181 0.625 24.8806 0.9675 23.8 1.61625C22.6125 2.32875 21.875 3.63125 21.875 5.01625V5.14437C21.875 5.30625 21.8912 5.46563 21.91 5.625H3.75C2.02688 5.625 0.625 7.02688 0.625 8.75V28.75C0.625 30.4731 2.02688 31.875 3.75 31.875H14.9762C14.8712 32.8719 14.3531 33.7756 13.5413 34.375H10.625C9.59125 34.375 8.75 35.2162 8.75 36.25V37.5C8.75 38.5338 9.59125 39.375 10.625 39.375H29.375C30.4088 39.375 31.25 38.5338 31.25 37.5V36.25C31.25 35.2162 30.4088 34.375 29.375 34.375H26.4587C25.6469 33.7756 25.1287 32.8719 25.0237 31.875H36.25C37.9731 31.875 39.375 30.4731 39.375 28.75V8.75C39.375 7.02688 37.9731 5.625 36.25 5.625ZM36.25 6.875C37.2838 6.875 38.125 7.71625 38.125 8.75V25.625H36.875V17.8731C36.875 16.2481 35.9719 14.7869 34.5187 14.0606C34.1387 13.8706 33.7331 13.7381 33.3131 13.6681L30.625 13.2206V12.1575C31.2419 11.6037 31.6731 10.8512 31.8181 10H32.5C33.5338 10 34.375 9.15875 34.375 8.125C34.375 7.67875 34.2119 7.27438 33.9506 6.95188C33.9631 6.92563 33.9788 6.90125 33.9913 6.875H36.25ZM30.2719 14.4288L30.53 14.4719L30.1638 17.4044L28.9506 16.1913L30.2719 14.4288ZM28.125 11.8706C26.7462 11.8706 25.625 10.7494 25.625 9.37063V7.46875C26.5412 7.37312 27.4019 7.02375 28.125 6.455C28.8481 7.02375 29.7088 7.37312 30.625 7.46875V9.37063C30.625 10.7487 29.5038 11.8706 28.125 11.8706ZM28.125 13.1206C28.5638 13.1206 28.9831 13.0406 29.375 12.9019V13.5419L28.125 15.2087L26.875 13.5419V12.9019C27.2669 13.0406 27.6862 13.1206 28.125 13.1206V13.1206ZM25.9781 14.4288L27.3 16.1913L26.0869 17.4044L25.7206 14.4719L25.9781 14.4288ZM24.4863 14.6775L25.1631 20.0956L28.125 17.1337L31.0869 20.0956L31.7637 14.6775L33.1075 14.9012C33.405 14.9512 33.6912 15.0444 33.96 15.1787C34.9869 15.6925 35.625 16.725 35.625 17.8731V25.625H20.625V17.8731C20.625 16.725 21.2631 15.6925 22.2906 15.1781C22.5588 15.0437 22.8456 14.9506 23.1425 14.9012L24.4863 14.6775ZM31.875 7.5H32.5C32.8444 7.5 33.125 7.78063 33.125 8.125C33.125 8.46937 32.8444 8.75 32.5 8.75H31.875V7.5ZM23.125 5.01625C23.125 4.06813 23.63 3.17625 24.4431 2.68813C25.3294 2.15625 26.3444 1.875 27.3781 1.875C28.9019 1.875 30.3344 2.46812 31.4331 3.56687L31.6162 3.75H31.875C32.5644 3.75 33.125 4.31062 33.125 5V5.14437C33.125 5.5425 33.0388 5.93 32.8806 6.28937C32.7575 6.26375 32.6306 6.25 32.5 6.25H31.875V6.24563H31.1431C30.17 6.24563 29.255 5.86688 28.5669 5.17875L28.125 4.73687L27.6831 5.17875C26.995 5.86688 26.0806 6.24563 25.1069 6.24563H24.375V6.25H23.75C23.6194 6.25 23.4925 6.26375 23.3694 6.28937C23.2112 5.93 23.125 5.5425 23.125 5.14437V5.01625ZM23.75 8.75C23.4056 8.75 23.125 8.46937 23.125 8.125C23.125 7.78063 23.4056 7.5 23.75 7.5H24.375V8.75H23.75ZM3.75 6.875H22.2587C22.2712 6.90125 22.2863 6.92563 22.2994 6.95188C22.0381 7.27375 21.875 7.67875 21.875 8.125C21.875 9.15875 22.7162 10 23.75 10H24.4319C24.5769 10.8512 25.0081 11.6037 25.625 12.1575V13.2206L22.9363 13.6688C22.5163 13.7388 22.1106 13.8712 21.7313 14.0606C20.2781 14.7875 19.375 16.2481 19.375 17.8731V25.625H1.875V8.75C1.875 7.71625 2.71625 6.875 3.75 6.875V6.875ZM30 36.25V37.5C30 37.8444 29.7194 38.125 29.375 38.125H10.625C10.2806 38.125 10 37.8444 10 37.5V36.25C10 35.9056 10.2806 35.625 10.625 35.625H29.375C29.7194 35.625 30 35.9056 30 36.25ZM24.7062 34.375H15.2937C15.83 33.6531 16.155 32.79 16.2262 31.875H23.7731C23.845 32.79 24.17 33.6531 24.7062 34.375ZM36.25 30.625H3.75C2.71625 30.625 1.875 29.7838 1.875 28.75V26.875H38.125V28.75C38.125 29.7838 37.2838 30.625 36.25 30.625Z" fill="#00B2CA"/>
<path d="M8.51125 16.875C8.76375 16.875 9.01687 16.815 9.24312 16.7025L12.22 15.2137C12.7781 14.935 13.125 14.3744 13.125 13.75C13.125 13.1256 12.7781 12.565 12.2206 12.2863L9.24312 10.7975C9.01687 10.685 8.76375 10.625 8.51125 10.625C7.60875 10.625 6.875 11.3588 6.875 12.2613V15.2387C6.875 16.1412 7.60875 16.875 8.51125 16.875V16.875ZM8.125 12.2613C8.125 12.0481 8.29813 11.875 8.51125 11.875C8.57063 11.875 8.63063 11.8888 8.68375 11.9156L11.6613 13.4044C11.7931 13.4706 11.875 13.6025 11.875 13.75C11.875 13.8975 11.7931 14.0294 11.6613 14.0956L8.68375 15.5844C8.44 15.7062 8.125 15.5112 8.125 15.2387V12.2613Z" fill="#00B2CA"/>
<path d="M5 19.375H15C16.0338 19.375 16.875 18.5338 16.875 17.5V10C16.875 8.96625 16.0338 8.125 15 8.125H5C3.96625 8.125 3.125 8.96625 3.125 10V17.5C3.125 18.5338 3.96625 19.375 5 19.375ZM4.375 10C4.375 9.65563 4.65563 9.375 5 9.375H15C15.3444 9.375 15.625 9.65563 15.625 10V17.5C15.625 17.8444 15.3444 18.125 15 18.125H5C4.65563 18.125 4.375 17.8444 4.375 17.5V10Z" fill="#00B2CA"/>
<path d="M3.125 20.625H4.375V21.875H3.125V20.625Z" fill="#00B2CA"/>
<path d="M5.625 20.625H16.875V21.875H5.625V20.625Z" fill="#00B2CA"/>
<path d="M3.125 23.125H16.875V24.375H3.125V23.125Z" fill="#00B2CA"/>
</svg>
