<?xml version="1.0"?>
<svg xmlns="http://www.w3.org/2000/svg" height="512px" viewBox="0 0 512 512" width="512px"><g><path d="m441.234375 104.898438c-1.601563-1.597657-3.769531-2.496094-6.035156-2.5h-136.53125c-14.140625 0-25.601563 11.464843-25.601563 25.601562v256c0 14.136719 11.460938 25.601562 25.601563 25.601562h187.730469c14.140624 0 25.601562-11.464843 25.601562-25.601562v-204.800781c0-2.261719-.898438-4.433594-2.5-6.03125zm2.5 26.632812 39.132813 39.136719h-39.132813zm42.664063 261.003906h-187.730469c-4.714844 0-8.535157-3.824218-8.535157-8.535156v-256c0-4.710938 3.820313-8.535156 8.535157-8.535156h128v59.734375c0 4.714843 3.820312 8.535156 8.53125 8.535156h59.734375v196.265625c0 4.710938-3.820313 8.535156-8.535156 8.535156zm0 0" data-original="#000000" class="active-path" data-old_color="#000000" fill="#00B2CA"/><path d="m325.972656 179.199219h66.5625c4.710938 0 8.53125-3.820313 8.53125-8.53125 0-4.714844-3.820312-8.535157-8.53125-8.535157h-66.5625c-4.710937 0-8.53125 3.820313-8.53125 8.535157 0 4.710937 3.820313 8.53125 8.53125 8.53125zm0 0" data-original="#000000" class="active-path" data-old_color="#000000" fill="#00B2CA"/><path d="m324.265625 221.867188h68.269531c4.710938 0 8.53125-3.820313 8.53125-8.535157 0-4.710937-3.820312-8.53125-8.53125-8.53125h-68.269531c-4.710937 0-8.53125 3.820313-8.53125 8.53125 0 4.714844 3.820313 8.535157 8.53125 8.535157zm0 0" data-original="#000000" class="active-path" data-old_color="#000000" fill="#00B2CA"/><path d="m460.800781 247.464844h-136.535156c-4.710937 0-8.53125 3.824218-8.53125 8.535156s3.820313 8.535156 8.53125 8.535156h136.535156c4.710938 0 8.53125-3.824218 8.53125-8.535156s-3.820312-8.535156-8.53125-8.535156zm0 0" data-original="#000000" class="active-path" data-old_color="#000000" fill="#00B2CA"/><path d="m460.800781 290.132812h-136.535156c-4.710937 0-8.53125 3.820313-8.53125 8.535157 0 4.710937 3.820313 8.53125 8.53125 8.53125h136.535156c4.710938 0 8.53125-3.820313 8.53125-8.53125 0-4.714844-3.820312-8.535157-8.53125-8.535157zm0 0" data-original="#000000" class="active-path" data-old_color="#000000" fill="#00B2CA"/><path d="m460.800781 332.800781h-136.535156c-4.710937 0-8.53125 3.820313-8.53125 8.53125 0 4.714844 3.820313 8.535157 8.53125 8.535157h136.535156c4.710938 0 8.53125-3.820313 8.53125-8.535157 0-4.710937-3.820312-8.53125-8.53125-8.53125zm0 0" data-original="#000000" class="active-path" data-old_color="#000000" fill="#00B2CA"/><path d="m494.933594 59.734375c0 4.710937-3.820313 8.53125-8.535156 8.53125h-187.730469c-4.714844 0-8.535157-3.820313-8.535157-8.53125v-59.734375h-17.066406v59.734375c0 14.136719 11.460938 25.597656 25.601563 25.597656h187.730469c14.140624 0 25.601562-11.460937 25.601562-25.597656v-59.734375h-17.066406zm0 0" data-original="#000000" class="active-path" data-old_color="#000000" fill="#00B2CA"/><path d="m324.265625 25.601562h136.535156c4.710938 0 8.53125-3.820312 8.53125-8.535156 0-4.710937-3.820312-8.53125-8.53125-8.53125h-136.535156c-4.710937 0-8.53125 3.820313-8.53125 8.53125 0 4.714844 3.820313 8.535156 8.53125 8.535156zm0 0" data-original="#000000" class="active-path" data-old_color="#000000" fill="#00B2CA"/><path d="m441.234375 429.167969c-1.601563-1.601563-3.769531-2.5-6.035156-2.5h-136.53125c-14.140625 0-25.601563 11.460937-25.601563 25.597656v59.734375h17.066406v-59.734375c0-4.710937 3.820313-8.53125 8.535157-8.53125h128v59.730469c0 4.714844 3.820312 8.535156 8.53125 8.535156h76.800781v-8.535156c0-2.261719-.898438-4.429688-2.5-6.03125zm2.5 26.632812 39.132813 39.132813h-39.132813zm0 0" data-original="#000000" class="active-path" data-old_color="#000000" fill="#00B2CA"/><path d="m392.535156 486.398438h-66.5625c-4.710937 0-8.53125 3.820312-8.53125 8.535156 0 4.710937 3.820313 8.53125 8.53125 8.53125h66.5625c4.710938 0 8.53125-3.820313 8.53125-8.53125 0-4.714844-3.820312-8.535156-8.53125-8.535156zm0 0" data-original="#000000" class="active-path" data-old_color="#000000" fill="#00B2CA"/><path d="m187.734375 238.933594v34.132812c0 4.714844 3.820313 8.535156 8.53125 8.535156 4.714844 0 8.535156-3.820312 8.535156-8.535156v-34.132812c0-4.714844-3.820312-8.535156-8.535156-8.535156-4.710937 0-8.53125 3.820312-8.53125 8.535156zm0 0" data-original="#000000" class="active-path" data-old_color="#000000" fill="#00B2CA"/><path d="m221.867188 221.867188v68.265624c0 4.714844 3.820312 8.535157 8.53125 8.535157 4.714843 0 8.535156-3.820313 8.535156-8.535157v-68.265624c0-4.714844-3.820313-8.535157-8.535156-8.535157-4.710938 0-8.53125 3.820313-8.53125 8.535157zm0 0" data-original="#000000" class="active-path" data-old_color="#000000" fill="#00B2CA"/><path d="m17.066406 418.132812h68.265625c2.742188 0 5.316407-1.320312 6.917969-3.546874 1.601562-2.222657 2.039062-5.082032 1.171875-7.683594l-7.585937-22.78125 12.449218-34.253906h29.714844c2.476562 0 4.828125-1.074219 6.449219-2.945313 1.621093-1.867187 2.351562-4.351563 2-6.800781l-7.144531-49.988282h5.351562l109.226562 50.414063c1.121094.523437 2.347657.789063 3.582032.785156 4.011718.003907 7.484375-2.78125 8.34375-6.699219.863281-3.914062-1.117188-7.902343-4.757813-9.582031l-105.984375-48.914062v-40.273438l105.976563-48.914062c2.765625-1.277344 4.644531-3.933594 4.921875-6.972657.277344-3.035156-1.085938-5.988281-3.574219-7.746093-2.492187-1.757813-5.730469-2.054688-8.5-.777344l-108.722656 50.175781-65.84375-8.226562c-3.777344-.46875-7.40625 1.617187-8.898438 5.121094l-25.601562 59.730468c-1.121094 2.636719-.847657 5.65625.730469 8.046875 1.578124 2.390625 4.25 3.828125 7.113281 3.832031h12.996093l-27.980468 69.972657-16.011719 5.34375c-6.957031 2.316406-11.6601562 8.824219-11.671875 16.160156v19.457031c0 9.425782 7.640625 17.066406 17.066406 17.066406zm87.433594-85.332031 9.847656-26.976562 3.8125 26.976562zm-30.917969-101.675781 54.417969 6.828125v35.113281h-72.386719zm-56.515625 150.496094 19.761719-6.589844c2.386719-.792969 4.296875-2.59375 5.234375-4.921875l31.980469-79.976563h27.8125l-33.066407 90.949219c-.671874 1.808594-.699218 3.789063-.078124 5.613281l4.777343 14.371094h-56.421875zm0 0" data-original="#000000" class="active-path" data-old_color="#000000" fill="#00B2CA"/><path d="m247.464844 153.601562c4.714844 0 8.535156-3.820312 8.535156-8.535156v-17.066406c0-4.710938-3.820312-8.535156-8.535156-8.535156-4.710938 0-8.53125 3.824218-8.53125 8.535156v17.066406c0 4.714844 3.820312 8.535156 8.53125 8.535156zm0 0" data-original="#000000" class="active-path" data-old_color="#000000" fill="#00B2CA"/><path d="m247.464844 68.265625c-4.710938 0-8.53125 3.820313-8.53125 8.535156v17.066407c0 4.710937 3.820312 8.53125 8.53125 8.53125 4.714844 0 8.535156-3.820313 8.535156-8.53125v-17.066407c0-4.714843-3.820312-8.535156-8.535156-8.535156zm0 0" data-original="#000000" class="active-path" data-old_color="#000000" fill="#00B2CA"/><path d="m256 25.601562c0-4.714843-3.820312-8.535156-8.535156-8.535156-4.710938 0-8.53125 3.820313-8.53125 8.535156v17.066407c0 4.710937 3.820312 8.53125 8.53125 8.53125 4.714844 0 8.535156-3.820313 8.535156-8.53125zm0 0" data-original="#000000" class="active-path" data-old_color="#000000" fill="#00B2CA"/><path d="m238.933594 486.398438c0 4.714843 3.820312 8.535156 8.53125 8.535156 4.714844 0 8.535156-3.820313 8.535156-8.535156v-17.066407c0-4.710937-3.820312-8.53125-8.535156-8.53125-4.710938 0-8.53125 3.820313-8.53125 8.53125zm0 0" data-original="#000000" class="active-path" data-old_color="#000000" fill="#00B2CA"/><path d="m238.933594 435.199219c0 4.714843 3.820312 8.535156 8.53125 8.535156 4.714844 0 8.535156-3.820313 8.535156-8.535156v-17.066407c0-4.710937-3.820312-8.53125-8.535156-8.53125-4.710938 0-8.53125 3.820313-8.53125 8.53125zm0 0" data-original="#000000" class="active-path" data-old_color="#000000" fill="#00B2CA"/><path d="m247.464844 358.398438c-4.710938 0-8.53125 3.820312-8.53125 8.535156v17.066406c0 4.710938 3.820312 8.535156 8.53125 8.535156 4.714844 0 8.535156-3.824218 8.535156-8.535156v-17.066406c0-4.714844-3.820312-8.535156-8.535156-8.535156zm0 0" data-original="#000000" class="active-path" data-old_color="#000000" fill="#00B2CA"/></g> </svg>
