<svg width="40" height="40" viewBox="0 0 40 40" fill="none" xmlns="http://www.w3.org/2000/svg">
<path d="M36.5218 16.5217C36.5218 10.2087 32.8461 4.36435 27.1609 1.63391C24.9148 0.549565 22.5061 0 20 0C19.3739 0 18.7531 0.0347826 18.14 0.102609C17.7896 0.141739 17.4426 0.194783 17.0974 0.256522C15.6278 0.517391 14.2035 0.975652 12.8409 1.63304H12.84H12.8391C7.15305 4.36609 3.47827 10.2096 3.47827 16.5217C3.47827 23.7826 8.19305 29.9513 14.7174 32.1617C12.18 33.4574 10.4348 36.0913 10.4348 39.1304C10.4348 39.6104 10.8244 40 11.3044 40H28.6957C29.1757 40 29.5652 39.6104 29.5652 39.1304C29.5652 36.0913 27.82 33.4574 25.2826 32.1617C31.807 29.9513 36.5218 23.7826 36.5218 16.5217ZM14.7383 2.72522C14.9557 2.64174 15.1722 2.55913 15.3931 2.48696C15.6522 2.40174 15.9148 2.3313 16.1783 2.26C16.4313 2.19304 16.6826 2.12174 16.9391 2.06783C17.1687 2.01913 17.4017 1.98783 17.6339 1.95043C17.9183 1.90435 18.2026 1.85217 18.4887 1.82348C18.7139 1.80087 18.9435 1.79826 19.1713 1.78609C19.7235 1.75565 20.2765 1.75565 20.8287 1.78609C21.0565 1.79826 21.2861 1.80087 21.5113 1.82348C21.7974 1.85217 22.0809 1.90522 22.3644 1.95043C22.5974 1.98783 22.8313 2.02 23.0618 2.0687C23.3165 2.12261 23.5678 2.19304 23.8191 2.26C24.0835 2.3313 24.347 2.40174 24.6078 2.48783C24.8278 2.56 25.0444 2.64261 25.2609 2.72609C25.4191 2.78696 25.5748 2.85565 25.7313 2.92174C24.8783 5.3287 22.6157 6.95652 20 6.95652C17.3844 6.95652 15.1218 5.3287 14.2687 2.92C14.4252 2.85391 14.5809 2.78522 14.7383 2.72522ZM27.8261 16.5217C27.8261 20.8365 24.3148 24.3478 20 24.3478C15.6852 24.3478 12.1739 20.8365 12.1739 16.5217C12.1739 12.207 15.6852 8.69565 20 8.69565C24.3148 8.69565 27.8261 12.207 27.8261 16.5217ZM27.7644 38.2609H12.2357C12.6591 35.3148 15.1991 33.0435 18.2609 33.0435H21.7391C24.8009 33.0435 27.3409 35.3148 27.7644 38.2609ZM20 31.3043C11.8487 31.3043 5.2174 24.673 5.2174 16.5217C5.2174 11.213 8.12262 6.27652 12.6974 3.67217C13.3678 5.43565 14.6278 6.86087 16.2261 7.73565C12.8235 9.20261 10.4348 12.5878 10.4348 16.5217C10.4348 21.7957 14.7261 26.087 20 26.087C25.2739 26.087 29.5652 21.7957 29.5652 16.5217C29.5652 12.5878 27.1765 9.20261 23.7739 7.73565C25.3722 6.86087 26.6322 5.43652 27.3026 3.67217C31.8774 6.27565 34.7826 11.213 34.7826 16.5217C34.7826 24.673 28.1513 31.3043 20 31.3043Z" fill="#00B2CA"/>
<path d="M20 12.1739C17.6026 12.1739 15.6522 14.1244 15.6522 16.5217C15.6522 18.9191 17.6026 20.8696 20 20.8696C22.3974 20.8696 24.3478 18.9191 24.3478 16.5217C24.3478 14.1244 22.3974 12.1739 20 12.1739ZM20 19.1304C18.5617 19.1304 17.3913 17.96 17.3913 16.5217C17.3913 15.0835 18.5617 13.913 20 13.913C21.4383 13.913 22.6087 15.0835 22.6087 16.5217C22.6087 17.96 21.4383 19.1304 20 19.1304Z" fill="#00B2CA"/>
</svg>
