<svg width="40" height="40" viewBox="0 0 40 40" fill="none" xmlns="http://www.w3.org/2000/svg">
<g clip-path="url(#clip0)">
<path d="M38.9402 15.6549C38.7175 15.6549 38.4915 15.7202 38.2684 15.8489L31.7181 19.6307V15.935C31.7181 15.1812 31.1048 14.5678 30.3509 14.5678H8.91414C8.2375 13.7848 7.23836 13.2879 6.12476 13.2879C4.09171 13.2879 2.43765 14.9419 2.43765 16.975V21.7056H1.07827C0.774603 21.7056 0.483509 21.8345 0.279993 22.059C0.0759308 22.2837 -0.0242255 22.5858 0.00507137 22.8876C0.151321 24.3999 0.853197 25.8004 1.98132 26.831C2.97195 27.7358 4.21773 28.2858 5.5389 28.4119V31.1078H1.98343C1.2296 31.1078 0.616243 31.7211 0.616243 32.475V33.5706C0.616243 34.3244 1.2296 34.9378 1.98343 34.9378H6.01562C6.33921 34.9378 6.60156 34.6755 6.60156 34.3519C6.60156 34.0283 6.33921 33.7659 6.01562 33.7659H1.98343C1.87757 33.7659 1.78812 33.6765 1.78812 33.5706V32.475C1.78812 32.3691 1.87757 32.2797 1.98343 32.2797H10.2662C10.372 32.2797 10.4615 32.3691 10.4615 32.475V33.5706C10.4615 33.6765 10.372 33.7659 10.2662 33.7659H8.75C8.4264 33.7659 8.16406 34.0283 8.16406 34.3519C8.16406 34.6755 8.4264 34.9378 8.75 34.9378H10.2661C10.9905 34.9378 11.5834 34.3711 11.6288 33.658H30.3509C31.1048 33.658 31.7181 33.0446 31.7181 32.2908V28.595L38.2685 32.3769C38.4915 32.5056 38.7175 32.5709 38.9402 32.5709H38.9402C39.2592 32.5709 39.543 32.4364 39.7392 32.1922C39.9099 31.9797 40.0001 31.6979 40.0001 31.3772V16.8486C40 16.1458 39.5642 15.6549 38.9402 15.6549V15.6549ZM3.60945 16.9751C3.60945 15.5882 4.73781 14.4598 6.12468 14.4598C7.51164 14.4598 8.64 15.5882 8.64 16.9751V20.2781H3.60945V16.9751ZM3.60945 21.4501H8.64007V22.2916C8.64007 23.6786 7.51171 24.8069 6.12476 24.8069C4.73789 24.8069 3.60953 23.6786 3.60953 22.2916V21.4501H3.60945ZM2.77164 25.9658C1.88374 25.1547 1.32202 24.0615 1.18249 22.8776H2.48468C2.76632 24.6331 4.29109 25.9788 6.12476 25.9788C7.95843 25.9788 9.48328 24.6331 9.76492 22.8776H11.0671C10.9277 24.0613 10.3659 25.1547 9.47797 25.9658C8.55843 26.8057 7.36757 27.2682 6.12476 27.2682C4.88195 27.2682 3.69109 26.8057 2.77164 25.9658ZM30.5463 32.2908C30.5463 32.3967 30.4568 32.4862 30.3509 32.4862H11.6333V32.475C11.6333 31.7211 11.0199 31.1078 10.2661 31.1078H6.71062V28.4119C8.03179 28.2858 9.27765 27.7358 10.2683 26.831C11.3963 25.8005 12.0982 24.4 12.2445 22.8879C12.2738 22.5858 12.1736 22.2838 11.9698 22.0594C11.766 21.8346 11.475 21.7057 11.1712 21.7057H9.81187V16.9751C9.81187 16.5419 9.73617 16.1262 9.59836 15.7397H30.3509C30.4568 15.7397 30.5463 15.8291 30.5463 15.935V32.2908ZM38.8281 31.347L36.05 29.743V27.2656C36.05 26.942 35.7877 26.6797 35.4641 26.6797C35.1405 26.6797 34.8781 26.942 34.8781 27.2656V29.0665L31.7181 27.2419V20.9838L34.8781 19.1594V24.5312C34.8781 24.8548 35.1405 25.1172 35.4641 25.1172C35.7877 25.1172 36.05 24.8548 36.05 24.5312V18.4829L38.8281 16.8789V31.347Z" fill="#00B2CA"/>
<path d="M23.4591 23.2166L16.3044 19.1291C16.1098 19.018 15.9112 18.9616 15.7143 18.9616C15.1552 18.9616 14.7495 19.4116 14.7495 20.0316V28.1942C14.7495 28.8142 15.1552 29.2642 15.7143 29.2642C15.9112 29.2642 16.1098 29.2079 16.3045 29.0967L23.459 25.0092C23.8245 24.8005 24.0341 24.4737 24.0341 24.1129C24.0341 23.7521 23.8245 23.4254 23.4591 23.2166V23.2166ZM15.9212 27.966V20.2598L22.6655 24.1129L15.9212 27.966Z" fill="#00B2CA"/>
<path d="M6.86312 15.9462H5.38632C5.06273 15.9462 4.80038 16.2086 4.80038 16.5322C4.80038 16.8558 5.06273 17.1181 5.38632 17.1181H6.86304C7.18663 17.1181 7.44898 16.8558 7.44898 16.5322C7.44906 16.2086 7.18671 15.9462 6.86312 15.9462Z" fill="#00B2CA"/>
<path d="M6.86312 18.1121H5.38632C5.06273 18.1121 4.80038 18.3745 4.80038 18.698C4.80038 19.0216 5.06273 19.284 5.38632 19.284H6.86304C7.18663 19.284 7.44898 19.0216 7.44898 18.698C7.44906 18.3745 7.18671 18.1121 6.86312 18.1121Z" fill="#00B2CA"/>
<path d="M20 12.023C19.3466 12.023 18.7168 12.3001 18.2723 12.7833C18.0532 13.0214 18.0686 13.3921 18.3067 13.6113C18.4193 13.7149 18.5615 13.766 18.7033 13.766C18.8614 13.766 19.0191 13.7023 19.1346 13.5767C19.3612 13.3305 19.6685 13.1949 19.9999 13.1949C20.3314 13.1949 20.6387 13.3305 20.8653 13.5768C21.0844 13.8149 21.4551 13.8303 21.6932 13.6112C21.9314 13.392 21.9468 13.0214 21.7276 12.7833C21.2831 12.3001 20.6534 12.023 20 12.023V12.023Z" fill="#00B2CA"/>
<path d="M22.573 12.0065C22.6885 12.132 22.8462 12.1956 23.0043 12.1956C23.1461 12.1956 23.2884 12.1444 23.4009 12.0408C23.6391 11.8217 23.6545 11.451 23.4352 11.2129C22.552 10.2531 21.2998 9.70273 20 9.70273C18.7002 9.70273 17.4481 10.2531 16.5648 11.2129C16.3456 11.451 16.361 11.8216 16.5991 12.0408C16.8372 12.2601 17.2079 12.2446 17.427 12.0065C18.0891 11.2872 19.0269 10.8747 20 10.8747C20.9731 10.8745 21.9109 11.2871 22.573 12.0065V12.0065Z" fill="#00B2CA"/>
<path d="M20.7102 8.59736C21.0317 8.63697 21.3236 8.40814 21.3629 8.08689C21.4022 7.76571 21.1737 7.47345 20.8524 7.43423C20.5716 7.39985 20.2848 7.38243 20.0001 7.38243C18.0546 7.38243 16.1803 8.20642 14.858 9.64314C14.6388 9.88119 14.6541 10.2519 14.8923 10.471C15.0048 10.5747 15.1471 10.6259 15.2889 10.6259C15.447 10.6259 15.6047 10.5623 15.7201 10.4367C16.8213 9.2404 18.3813 8.55431 20.0001 8.55431C20.2374 8.55431 20.4763 8.56876 20.7102 8.59736Z" fill="#00B2CA"/>
<path d="M24.2798 10.4367C24.3953 10.5623 24.5529 10.6258 24.7111 10.6258C24.8529 10.6258 24.9952 10.5747 25.1078 10.4711C25.3459 10.2519 25.3613 9.88124 25.1421 9.64312C24.7078 9.17132 24.2118 8.76124 23.6678 8.42453C23.3924 8.25421 23.0313 8.33921 22.8611 8.61437C22.6908 8.88952 22.7758 9.2507 23.051 9.42101C23.5043 9.70155 23.9178 10.0433 24.2798 10.4367Z" fill="#00B2CA"/>
<path d="M13.5816 9.05573C13.7397 9.05573 13.8974 8.99206 14.0128 8.86659C15.5527 7.19354 17.7349 6.23401 20 6.23401C22.265 6.23401 24.4473 7.19354 25.9872 8.86659C26.2064 9.10471 26.5771 9.1201 26.8151 8.90088C27.0532 8.68174 27.0685 8.31104 26.8494 8.07299C25.0883 6.15956 22.5917 5.06213 20 5.06213C17.4082 5.06213 14.9116 6.15956 13.1506 8.07299C12.9314 8.31112 12.9468 8.68174 13.1849 8.90096C13.2975 9.00448 13.4397 9.05573 13.5816 9.05573V9.05573Z" fill="#00B2CA"/>
</g>
<defs>
<clipPath id="clip0">
<rect width="40" height="40" fill="white"/>
</clipPath>
</defs>
</svg>
