<svg width="16" height="16" viewBox="0 0 16 16" fill="none" xmlns="http://www.w3.org/2000/svg">
<path d="M16 8.19354C16 7.76343 15.9563 7.31182 15.8689 6.8387H8.13115V9.61289H12.7541C12.6667 10.086 12.4809 10.5591 12.1967 11.0322C11.8033 11.6129 11.3115 12.0753 10.7213 12.4193C9.97814 12.8495 9.11475 13.0645 8.13115 13.0645C7.21311 13.0645 6.37159 12.8333 5.60656 12.371C4.84153 11.9086 4.22951 11.2957 3.77049 10.5322C3.31148 9.76881 3.08197 8.92473 3.08197 7.99999C3.08197 6.92472 3.37705 5.96773 3.96721 5.12902C4.51366 4.35483 5.23497 3.77419 6.13115 3.38709C7.02732 3 7.93443 2.87096 8.85246 3C9.83606 3.12903 10.6776 3.52688 11.377 4.19354L13.5738 2.09677C12.0656 0.69892 10.2514 0 8.13115 0C6.66667 0 5.31148 0.360215 4.06557 1.08065C2.81967 1.80108 1.8306 2.77419 1.09836 4C0.366123 5.22581 0 6.55914 0 8C0 9.44086 0.36612 10.7742 1.09836 12C1.8306 13.2258 2.81967 14.1989 4.06557 14.9194C5.31148 15.6398 6.66667 16 8.13115 16C9.68306 16 11.0546 15.6667 12.2459 15C13.4372 14.3333 14.3607 13.4086 15.0164 12.2258C15.6721 11.043 16 9.69893 16 8.19355L16 8.19354Z" fill="#778CA2"/>
</svg>
