<svg xmlns="http://www.w3.org/2000/svg" xmlns:xlink="http://www.w3.org/1999/xlink" viewBox="0 0 828.76 700"><defs><style>.cls-1{fill:url(#New_Gradient_Swatch_1);}.cls-2{fill:#fff;}.cls-3{fill:url(#New_Gradient_Swatch_1-2);}.cls-4{fill:#eef0f7;}.cls-5{fill:#f0f0f0;}.cls-6{fill:#00b2ca;}.cls-7{fill:#8f8f8f;}.cls-8{fill:#ccc;}.cls-9{fill:#f5f7ff;}.cls-10{fill:#e6e6e6;}.cls-11{fill:#f3f3f3;}.cls-12{fill:url(#New_Gradient_Swatch_2);}.cls-13{fill:url(#New_Gradient_Swatch_1-3);}.cls-14{fill:url(#New_Gradient_Swatch_1-4);}.cls-15{fill:url(#New_Gradient_Swatch_2-2);}.cls-16{fill:url(#linear-gradient);}.cls-17{fill:url(#linear-gradient-2);}.cls-18{fill:#eea886;}.cls-19{fill:#db9c7c;}.cls-20{fill:#323657;}.cls-21{fill:#4da8f2;}.cls-22{fill:#efaa88;}.cls-23{fill:#424773;}.cls-24{fill:#292c47;}.cls-25{fill:#d88a51;}.cls-26{fill:#e2d2ca;}.cls-27{fill:#dfe1e8;}.cls-28{fill:#de9673;}.cls-29{fill:#2f4563;}.cls-30{fill:#1e2d40;}.cls-31{fill:#23344a;}.cls-32{fill:#41608a;}.cls-33{fill:#eea987;}.cls-34{fill:#eb4747;}.cls-35{fill:#464240;}.cls-36{fill:#a77860;}.cls-37{fill:#6e6760;}.cls-38{fill:#5c544d;}.cls-39{fill:#3c4145;}.cls-40{fill:#33373b;}.cls-41{fill:#fccca2;}.cls-42{fill:#d6d6d6;}.cls-43{fill:#c98462;}.cls-44{fill:#de9d7d;}.cls-45{fill:#1d3b54;}.cls-46{fill:#434343;}.cls-47{fill:#cf8c6c;}.cls-48{fill:#e0e0e0;}.cls-49{fill:#b8b8b8;}.cls-50{fill:#d9d9d9;}.cls-51{fill:url(#New_Gradient_Swatch_1-5);}.cls-52{fill:url(#New_Gradient_Swatch_1-6);}</style><linearGradient id="New_Gradient_Swatch_1" x1="-12658.67" y1="-81.51" x2="-12501.51" y2="-81.51" gradientTransform="matrix(-1, -0.05, -0.05, 1, -12436.77, -309.17)" gradientUnits="userSpaceOnUse"><stop offset="0" stop-color="#00b2ca"/><stop offset="1" stop-color="#0095ab"/></linearGradient><linearGradient id="New_Gradient_Swatch_1-2" x1="-12643.63" y1="-128.95" x2="-12569.24" y2="-128.95" xlink:href="#New_Gradient_Swatch_1"/><linearGradient id="New_Gradient_Swatch_2" x1="-5914.99" y1="483.43" x2="-5826.15" y2="483.43" gradientTransform="matrix(-1, 0, 0, 1, -5769.47, 0)" gradientUnits="userSpaceOnUse"><stop offset="0" stop-color="#00d4ca"/><stop offset="1" stop-color="#0095ab"/></linearGradient><linearGradient id="New_Gradient_Swatch_1-3" x1="-5849.82" y1="533.01" x2="-5769.47" y2="533.01" gradientTransform="matrix(-1, 0, 0, 1, -5769.47, 0)" xlink:href="#New_Gradient_Swatch_1"/><linearGradient id="New_Gradient_Swatch_1-4" x1="-5842.95" y1="544.69" x2="-5782.65" y2="544.69" gradientTransform="matrix(-1, 0, 0, 1, -5769.47, 0)" xlink:href="#New_Gradient_Swatch_1"/><linearGradient id="New_Gradient_Swatch_2-2" x1="-5864.73" y1="496.16" x2="-5794.5" y2="496.16" xlink:href="#New_Gradient_Swatch_2"/><linearGradient id="linear-gradient" x1="40.54" y1="596.9" x2="105.34" y2="596.9" gradientTransform="translate(6.03)" gradientUnits="userSpaceOnUse"><stop offset="0" stop-color="#ff9340"/><stop offset="1" stop-color="#ffce45"/></linearGradient><linearGradient id="linear-gradient-2" x1="40.54" y1="596.9" x2="105.34" y2="596.9" gradientTransform="translate(6.03)" gradientUnits="userSpaceOnUse"><stop offset="0" stop-color="#c97332"/><stop offset="1" stop-color="#ffce45"/></linearGradient><linearGradient id="New_Gradient_Swatch_1-5" x1="485.26" y1="252.33" x2="236.79" y2="252.33" gradientTransform="matrix(1, 0, 0, 1, 0, 0)" xlink:href="#New_Gradient_Swatch_1"/><linearGradient id="New_Gradient_Swatch_1-6" x1="214.94" y1="246.4" x2="458.59" y2="246.4" gradientTransform="matrix(1, 0, 0, 1, 0, 0)" xlink:href="#New_Gradient_Swatch_1"/></defs><title>home-image</title><g id="Layer_2" data-name="Layer 2"><g id="Слой_1" data-name="Слой 1"><path class="cls-1" d="M194.27,294.57c10.19,22.23,15.91,43.26,8.41,52.65a12.28,12.28,0,0,1-1.45,1.52c-5.78,5.09-17.14,5.21-36.32-2.37-51.06-20.17-53.49-55-63.81-89-10.18-33.56-45.74-27.89-46.65-27.74C137.31,200.8,177,256.88,194.27,294.57Z"/><path class="cls-2" d="M202.68,347.22a12.28,12.28,0,0,1-1.45,1.52c-9.59-5.78-27.95-18-36.61-31.78-4.09-6.49-7.52-13.79-11.16-21.51-6.87-14.6-14-29.7-26.41-41.28l1.39-1.49c12.7,11.86,19.89,27.13,26.85,41.91,3.61,7.67,7,14.91,11,21.29C174.78,329.29,193.33,341.59,202.68,347.22Z"/><path class="cls-3" d="M185.4,303.65c-.6,1.48-1,2.32-1,2.41-.16-.82-.31-1.63-.47-2.41-6.81-34.9-15.92-38.55-43.23-69.07-27.93-31.23-11.86-60.32-11.86-60.32C222.38,201.3,191.76,288.05,185.4,303.65Z"/><path class="cls-2" d="M185.4,303.65c-.6,1.48-1,2.32-1,2.41-.16-.82-.31-1.63-.47-2.41,3-30.17-15.17-65.57-20.89-71.93-5.91-6.58-9.56-15.62-10.94-19-.23-.57-.45-1.1-.52-1.23l1.32-.75c.12.21.27.58.61,1.41,1.34,3.34,4.92,12.21,10.66,18.58C171.39,238.76,188.18,274.33,185.4,303.65Z"/><path class="cls-4" d="M716.07,160.19l-11.53-18.88a3.29,3.29,0,1,1,5.61-3.43l8.15,13.35L740,138.4a3.29,3.29,0,0,1,3.35,5.66Z"/><path class="cls-4" d="M723.82,189.29a41.47,41.47,0,1,1,41.47-41.47A41.51,41.51,0,0,1,723.82,189.29Zm0-77a35.55,35.55,0,1,0,35.54,35.55A35.59,35.59,0,0,0,723.82,112.27Z"/><path class="cls-5" d="M587.64,99.19l-7.13-11.67A2,2,0,1,1,584,85.41l5,8.25,13.39-7.93a2,2,0,1,1,2.07,3.49Z"/><path class="cls-5" d="M592.42,117.18a25.63,25.63,0,1,1,25.63-25.63A25.65,25.65,0,0,1,592.42,117.18Zm0-47.6a22,22,0,1,0,22,22A22,22,0,0,0,592.42,69.58Z"/><path class="cls-5" d="M455.85,56.12,444.92,38.23A3.11,3.11,0,1,1,450.23,35L458,47.64l20.55-12.17a3.12,3.12,0,0,1,3.18,5.36Z"/><path class="cls-5" d="M463.19,83.72A39.32,39.32,0,1,1,502.5,44.4,39.36,39.36,0,0,1,463.19,83.72Zm0-73a33.7,33.7,0,1,0,33.7,33.7A33.74,33.74,0,0,0,463.19,10.7Z"/><path class="cls-6" d="M340.22,99,333,87.2a2.06,2.06,0,1,1,3.51-2.14l5.11,8.36,13.58-8a2.06,2.06,0,1,1,2.09,3.54Z"/><path class="cls-6" d="M345.07,117.26a26,26,0,1,1,26-26A26,26,0,0,1,345.07,117.26Zm0-48.25a22.27,22.27,0,1,0,22.27,22.27A22.29,22.29,0,0,0,345.07,69Z"/><path class="cls-6" d="M238.74,42.22l-9-14.81a2.57,2.57,0,1,1,4.39-2.68l6.4,10.47,17-10.07a2.58,2.58,0,0,1,2.62,4.44Z"/><path class="cls-6" d="M244.81,65a32.52,32.52,0,1,1,32.52-32.52A32.56,32.56,0,0,1,244.81,65Zm0-60.39a27.87,27.87,0,1,0,27.87,27.87A27.91,27.91,0,0,0,244.81,4.65Z"/><path class="cls-6" d="M123.55,115.82l-10-16.41a2.86,2.86,0,0,1,4.88-3L125.49,108l18.84-11.16a2.86,2.86,0,0,1,2.91,4.92Z"/><path class="cls-6" d="M130.28,141.12a36.06,36.06,0,1,1,36.05-36.05A36.1,36.1,0,0,1,130.28,141.12Zm0-66.95a30.9,30.9,0,1,0,30.9,30.9A30.93,30.93,0,0,0,130.28,74.17Z"/><path class="cls-6" d="M673.57,48.33,667.87,39a1.63,1.63,0,1,1,2.77-1.7l4,6.6,10.72-6.34a1.63,1.63,0,0,1,1.65,2.8Z"/><path class="cls-6" d="M677.4,62.72a20.5,20.5,0,1,1,20.5-20.5A20.53,20.53,0,0,1,677.4,62.72Zm0-38.08A17.58,17.58,0,1,0,695,42.22,17.6,17.6,0,0,0,677.4,24.64Z"/><rect class="cls-7" x="386.68" y="445.41" width="56.54" height="171.74" transform="translate(829.9 1062.57) rotate(180)"/><rect class="cls-5" x="170.82" y="183.7" width="488.26" height="344.44" rx="24.83" transform="translate(829.9 711.84) rotate(180)"/><rect class="cls-2" x="189.95" y="147.04" width="450.01" height="327.12" transform="translate(829.9 621.21) rotate(180)"/><rect class="cls-6" x="189.95" y="147.04" width="450.01" height="39.51" transform="translate(829.9 333.6) rotate(180)"/><path class="cls-8" d="M585.19,498.86c0,8.7,8.3,15.75,18.52,15.75s18.52-7.05,18.52-15.75-8.29-15.75-18.52-15.75S585.19,490.17,585.19,498.86Z"/><rect class="cls-8" x="287.76" y="610.67" width="254.38" height="12.96"/><rect class="cls-9" x="208.74" y="159.33" width="64.18" height="14.93" rx="5.37"/><rect class="cls-10" x="222.92" y="324.22" width="235.61" height="8.1"/><rect class="cls-10" x="222.92" y="338.8" width="174.75" height="8.1"/><rect class="cls-10" x="222.92" y="370.5" width="110.8" height="8.1"/><rect class="cls-10" x="222.92" y="385.09" width="199.07" height="8.1"/><rect class="cls-10" x="222.92" y="419.94" width="186.49" height="8.1"/><rect class="cls-10" x="222.92" y="434.52" width="227.72" height="8.1"/><rect class="cls-6" x="211.42" y="324.22" width="5.92" height="22.68"/><rect class="cls-6" x="211.42" y="370.5" width="5.92" height="22.68"/><rect class="cls-6" x="211.42" y="419.94" width="5.92" height="22.68"/><rect class="cls-6" x="511.11" y="420.39" width="32.45" height="32.45" rx="6.79"/><path class="cls-11" d="M526.31,443.76l-8.2-7.15a1.61,1.61,0,0,1-.16-2.28,1.63,1.63,0,0,1,2.28-.16l5.8,5.06,8.28-9.23a1.61,1.61,0,0,1,2.4,2.16Z"/><path class="cls-6" d="M536.18,403.41H518.49A7.39,7.39,0,0,1,511.1,396V378.33a7.4,7.4,0,0,1,7.39-7.4h17.69a7.41,7.41,0,0,1,7.4,7.4V396A7.4,7.4,0,0,1,536.18,403.41ZM518.49,373a5.34,5.34,0,0,0-5.33,5.34V396a5.34,5.34,0,0,0,5.33,5.34h17.69a5.35,5.35,0,0,0,5.34-5.34V378.33a5.35,5.35,0,0,0-5.34-5.34Z"/><path class="cls-6" d="M585.05,452.85h-17.7a7.39,7.39,0,0,1-7.39-7.39V427.77a7.4,7.4,0,0,1,7.39-7.4h17.7a7.41,7.41,0,0,1,7.39,7.4v17.69A7.4,7.4,0,0,1,585.05,452.85Zm-17.7-30.42a5.34,5.34,0,0,0-5.33,5.34v17.69a5.33,5.33,0,0,0,5.33,5.33h17.7a5.33,5.33,0,0,0,5.33-5.33V427.77a5.34,5.34,0,0,0-5.33-5.34Z"/><rect class="cls-6" x="559.97" y="370.95" width="32.45" height="32.45" rx="6.79"/><path class="cls-11" d="M575.17,394.32l-8.2-7.15a1.61,1.61,0,0,1-.16-2.28,1.63,1.63,0,0,1,2.28-.16l5.8,5.06,8.28-9.23a1.61,1.61,0,0,1,2.4,2.16Z"/><path class="cls-6" d="M585.05,354h-17.7a7.4,7.4,0,0,1-7.39-7.4V328.89a7.4,7.4,0,0,1,7.39-7.4h17.7a7.41,7.41,0,0,1,7.39,7.4v17.69A7.41,7.41,0,0,1,585.05,354Zm-17.7-30.43a5.34,5.34,0,0,0-5.33,5.34v17.69a5.34,5.34,0,0,0,5.33,5.34h17.7a5.34,5.34,0,0,0,5.33-5.34V328.89a5.34,5.34,0,0,0-5.33-5.34Z"/><rect class="cls-6" x="511.11" y="321.51" width="32.45" height="32.45" rx="6.79"/><path class="cls-11" d="M526.31,344.88l-8.2-7.15a1.61,1.61,0,0,1-.16-2.28,1.63,1.63,0,0,1,2.28-.16l5.8,5.06,8.28-9.22a1.61,1.61,0,1,1,2.4,2.15Z"/><path class="cls-12" d="M137.76,366c-7.66-3.66-15.29,20.72-15.29,20.72-13,17.21-31.22-5.68-29.44,20,3.12,45-51.8,14.15-26.47,61.14s-22.37,26.57-6.62,64.46-4.66,83.08,19,64.51c0,0,20.86-45.75,42.37-59.9s-12.89-30.95-6.16-50.17C125,458.91,148.51,460,131.53,430S163.8,378.48,137.76,366Z"/><path class="cls-2" d="M71.46,579.68c10.27-7.22,22.29-57.55,23-87.52.37-15.36,4.91-21.76,8.91-27.4,3.83-5.4,7.13-10.06,5.21-20.75-3.68-20.45,6-29.28,6.09-29.36l-1.12-1.28c-.43.38-10.51,9.48-6.64,30.94,1.8,10-1.17,14.17-4.93,19.47-3.94,5.55-8.84,12.46-9.22,28.33C92,524.28,79.71,571.8,70.49,578.29Z"/><path class="cls-13" d="M49.94,565c-1-2.19-2-4.47-3.11-6.86C41,545.75,35.77,543.71,27.16,540.33c-2.1-.82-4.49-1.76-7.11-2.93-12.33-5.55-9.94-13.71-7.83-20.92.29-1,.58-2,.84-3,1.08-4.23-1-6.36-4.15-9.58a35.88,35.88,0,0,1-7.52-10.07c-2.46-5.15-1.2-7.91.28-9.31,3.13-3,10.35-2.42,17.16,1.29h0a25.17,25.17,0,0,1,5.7,4.91c4.34,4.55,9.74,10.21,23.41,10.27,7.79,0,12.06,1.12,14.27,3.6,2.51,2.82,2,7,1.38,12.88-.22,2-.48,4.31-.63,6.79a39.56,39.56,0,0,0,7.87,25.51c5.2,6.2,11.62,19.06,8.85,27-1.16,3.31-3.76,5.4-7.72,6.2a21.74,21.74,0,0,1-4.34.47C58.06,583.41,54.56,575.48,49.94,565ZM18,487.3c-6.08-3.33-12.6-4-15.17-1.56-1.95,1.85-1,5,.09,7.35a33.84,33.84,0,0,0,7.19,9.61c3.3,3.37,5.91,6,4.58,11.19-.26,1-.55,2-.85,3.07-2.1,7.17-4.08,13.95,6.9,18.89,2.58,1.16,4.94,2.09,7,2.9,8.69,3.41,14.43,5.67,20.59,18.66,1.14,2.42,2.15,4.7,3.12,6.91,5.32,12,8.52,19.3,20.14,17,3.33-.68,5.5-2.39,6.44-5.1,2.44-7-3.39-19.2-8.55-25.33a40.62,40.62,0,0,1-8.26-26.71c.16-2.52.42-4.83.65-6.87.6-5.4,1-9.31-1-11.56-1.83-2.06-5.84-3-13-3-14.39-.07-20.07-6-24.63-10.79A22.8,22.8,0,0,0,18,487.3Z"/><path class="cls-14" d="M71.78,593.22l1.7-.09C73.39,591.54,71.25,554,56.17,543c-16.54-12.06-21.76-25-24.24-33.71C29,499,14.1,496.27,13.47,496.16l-.3,1.68c.15,0,14.49,2.66,17.12,11.89,2.56,8.94,7.91,22.26,24.88,34.63C69.61,554.88,71.76,592.84,71.78,593.22Z"/><path class="cls-15" d="M37.3,403.93c10.72-3.67,8.49,17,13,32.27s50.39,6.67,31.14,44.95,24.34,12.8,11.32,46.2-1.13,69.12-15.28,60-8-51.15-22.67-56.15-17.13-10.83-2.55-24.41-38.19-27.08-25.17-54.51S24.92,408.18,37.3,403.93Z"/><path class="cls-2" d="M70.93,585.79c1.35-5.72,12.86-56,2.12-62.12-9.47-5.37-9.24-26.22-7.76-45.91,1.31-17.43-21.08-25.57-22-25.91l-.57,1.6c.22.08,22.12,8.05,20.91,24.18-1.52,20.23-1.68,41.68,8.61,47.51,8.16,4.62.65,45.06-2.93,60.26Z"/><polygon class="cls-16" points="111.37 567.87 96.07 625.93 61.87 625.93 46.56 567.87 111.37 567.87"/><path class="cls-17" d="M111.37,567.87s-33.69,6.32-33.69,58.06H61.87L46.56,567.87Z"/><path class="cls-18" d="M379.39,529.34a10.25,10.25,0,0,1,1.33,3.5,16.3,16.3,0,0,0,1.62,4.14,39.6,39.6,0,0,1,2,6.9c0,.49-1.08,3.62-.92,4.62s.72,3-.17,3.11-1.92-1.5-1.92-1.5a1.33,1.33,0,0,1-.67,1.28,2.23,2.23,0,0,1-2.26.08s-.54,1-1.23,1.15a4.56,4.56,0,0,0-3.95.24,2.24,2.24,0,0,1-1.89-1.18s-1.69.34-2.17-.44a7.52,7.52,0,0,1-.61-2.34,27.23,27.23,0,0,1,2.14-11.79c2.18-4.64-.56-9.16-.56-9.16Z"/><path class="cls-19" d="M381.53,549.51s.15-5.78-1.37-7-1.69.86-1.69.86.2-2.06-1.46-2.34-1.73,2.17-1.73,2.17a1.6,1.6,0,0,0-2-1.26c-1.75.32-1.33,2.35-1.33,2.35s-1.67-2-2.75-.08c-1.82,3.23-.06,7-.06,7s.51.87,2.17.44c0,0,1.11,2.24,3.6.63,0,0,2.54,1.4,3.47-.84C378.36,551.47,381.17,552.8,381.53,549.51Z"/><path class="cls-20" d="M399,446.1s-9.89,33-13.23,45.13c-1.05,3.81-3.59,40.24-4,41.7s-13,3.48-13,3.48,1.52-45.57,1.67-48,13.84-53.37,17.82-55.18c3-1.36,4.56-.24,8.33,2.55C401.83,439.65,399,446.1,399,446.1Z"/><rect class="cls-21" x="493.8" y="392.35" width="27.06" height="2.01" transform="translate(-132.58 342.11) rotate(-33.21)"/><path class="cls-22" d="M521.61,393.62a5.87,5.87,0,0,1-.58,1.8s-.74.88-1.23,1.54a5.83,5.83,0,0,0-.35.53,11,11,0,0,1-1.88,2.9c-1.07,1.1-5.27,4.57-5.27,4.57l-3.6-3L505,400.23s2.09-9.09,3-10.22c.09-.11.18-.22.27-.31a13.77,13.77,0,0,1,2.34-1.61c.19-.15,2.11-1.54,2.79-1.36a2.33,2.33,0,0,1,1.73,1.44,5.57,5.57,0,0,1,2.56,1.65,3.42,3.42,0,0,1,2.22,2.06S521.54,392.55,521.61,393.62Z"/><path class="cls-23" d="M391,671.2s-.9,6.26-1,7.2-10-.56-10-.56l-.8-7.45S389.73,670.31,391,671.2Z"/><path class="cls-24" d="M390.06,677.6a26.86,26.86,0,0,0,6.18,5.42c3,1.64,7.82,2.29,9.61,4,1.3,1.23,4.73,6.52-7.9,6.41s-18.7.75-20.06-1.28,2-15,2-15S382.84,678.25,390.06,677.6Z"/><path class="cls-23" d="M462,671.2s-.9,6.26-1,7.2-10-.56-10-.56l-.8-7.45S460.79,670.31,462,671.2Z"/><path class="cls-24" d="M461.12,677.6A26.86,26.86,0,0,0,467.3,683c3,1.64,14.22,3,16,4.69,1.3,1.23,3.46,6.17-14.3,5.71-12.62-.33-18.71.75-20.06-1.28s2-15,2-15S453.73,678.33,461.12,677.6Z"/><path class="cls-24" d="M399.18,510.38s-9.32,14.81-8.62,28.19-3.38,28-4.78,42c-1.56,15.58-7.95,52.48-8.18,60.82s1,35,1,35l12.78.29s10.74-64.51,13.52-71.09,16.57-53.5,17-58.77S399.18,510.38,399.18,510.38Z"/><path class="cls-24" d="M448.24,512.39s7,36.68,7.95,44.87,1.54,39.64,2,44.76,4.33,66.84,5.57,74.6H447.41s-12.54-45-12.54-66.26-9.7-46.27-15.95-60.31-20.58-14.37-24.43-40.43C394.49,509.62,443,504.12,448.24,512.39Z"/><path class="cls-18" d="M414.73,385.9s12.51-4.67,18.28,4.85,5.21,28.59-1.1,30.93-15.77,1.12-19-4.84-6.14-14.57-6-20.33S411.45,387.57,414.73,385.9Z"/><path class="cls-18" d="M430.56,422.12s-.53,3.37.33,5-16.2,1.7-16.2,1.7a113.06,113.06,0,0,0-4-16.69C408.05,404.52,430.56,422.12,430.56,422.12Z"/><path class="cls-25" d="M410.68,412.17s1.18,1.94,6,1.19,10.68-7.15,12.68-7.85,2-1.89,2-1.89l1.26,1.84,2.13.14s-1.94-5.73,1-8.06S432.7,379,417.29,384.41c0,0-11.85,3.26-11.42,10S408,408.82,410.68,412.17Z"/><path class="cls-26" d="M431.91,427s-.06-3.18-1.5-3.49-15.9-1.69-17.67-1v3.71S416.15,428.27,431.91,427Z"/><path class="cls-18" d="M431.05,401.17c-.27-1.12-3.14-4.35-4.24-.9s1.66,8.11,3.2,7.71S431.74,404,431.05,401.17Z"/><path class="cls-20" d="M455.83,431.77c-9.92-1.31-23.92-4.81-23.92-4.81l-19.17-.78s-17.59,3.87-24.52,7c-.65.29-.66,15.69-2.46,19.73L391.5,465s3.32,24,4,34.68c.32,4.9-6.84,45.95-6.84,45.95a132,132,0,0,0,20.75,3.7c13.08,1.45,45.76-.52,46-2.06s-6.33-57.53-6.62-60.43c-.44-4.45,1.53-28.1,1.53-28.1,3-2.34,29.54-14.65,36.78-21.06,1.93-1.72,10.1-9.68,12.43-12.42,8.22-9.73,15-18.07,15.79-19.87.93-1-8.94-6.39-9.84-6.69s-11.9,14.15-16.18,18.78c-1.91,2.07-9.84,7.84-9.84,7.84S462,432.13,455.83,431.77Z"/><path class="cls-25" d="M411.17,387s-15.95,1.25-.49,25.14Z"/><polygon class="cls-27" points="519.2 386.78 520.51 384.79 518.1 385.1 519.2 386.78"/><path class="cls-28" d="M199.89,501.51s7.75.46,9.93,1.67,16.84-3.41,17.11-4.48a2.41,2.41,0,0,0,0-1.59H198.14Z"/><path class="cls-28" d="M165.05,467.29s-2.47,19.45,0,22c9.46,9.74,44.5,9,44.5,9v4s-53.27,6.65-58.22-3.68c-5.94-12.42-3.64-32.66-3.64-32.66Z"/><polygon class="cls-29" points="147.47 672.25 150.64 668.65 144.93 662.67 140.1 666.05 147.47 672.25"/><path class="cls-30" d="M140.1,666.05s6.52,4.91,8.33,5.11,2.67,1,2.46,3.77,2.65,14.4,4.64,14.58,8.8.23,10,4.71-21.56,3.54-23-.14-11.22-21.48-10.06-22.92S136.76,666.51,140.1,666.05Z"/><path class="cls-31" d="M181.93,526.84s42.6,74.2,25.31,89.55c-6.78,6-13.31,11.46-22.69,19.52a231,231,0,0,0-18.15,16.67l-.29.31c-5.09,5.31-9.3,9.79-10.59,11.18l-.12.13-.15.15-4.74,4.53-6.95-6.12a207,207,0,0,0,12.33-19.29c6.24-11.76,16.72-25.58,21.57-29.44,8.31-6.6,10.6-7.9,10.6-14.22,0-6.77-39-44.62-39-44.62s-5.67-23.68,7.86-29.88C170.06,519.27,181.93,526.84,181.93,526.84Z"/><path class="cls-32" d="M149.45,683.74a21,21,0,0,1,.31-5.6c.58-2.18-8.82-.93-8.82-.93s-1.21,9.13-.86,11.22S149.45,683.74,149.45,683.74Z"/><path class="cls-29" d="M151.21,678.16l-12.67,2.28s-.91-16.17-.75-28.55c.18-13.31-.49-23.78,3.57-34.38,3.81-9.91,2.94-13.68,3.27-20.45s-3.24-41.61-3.24-41.61-4.33-15.6,5.69-26.6c9.76-10.73,35-.05,35-.05s-5.26,47.6-17.89,77c-3.58,8.34-1.65,13.4-6.2,26.27C158,632.11,151.07,660.19,151.21,678.16Z"/><path class="cls-33" d="M162.24,434.69a14.74,14.74,0,0,0-1.51,4.08,35.52,35.52,0,0,0-.69,4.34,50.94,50.94,0,0,0-.26,5.54S142.89,445,145.66,441s1.14-15.89,1.14-15.89S164.42,431,162.24,434.69Z"/><path class="cls-18" d="M171.74,402.14s4.33,3.76,2.4,14.58c0,0,1,8.62,2.27,10.13s-3.54,2.06-4,3.14-1.48,6.15-4.87,9.2-20.18-6.15-21-11.35-12.44-27.5,6-28.52S171.74,402.14,171.74,402.14Z"/><path class="cls-34" d="M183.33,482c-.35,1.09.94,17.74.83,19.18-.65,7.87,1.39,19.84,2.19,24.13l.29,1.53C168.39,535.76,143,535,143,535c.1-.69,3.64-9.26,3.73-9.92,1.5-10.71,3.72-15.6,3.12-22.85h0a45.33,45.33,0,0,0-3.52-13.6c-6.2-15.22-5.86-25.36-4.85-33.72S145,441.75,145,441.75l15.41,1.66c3.28,3.62,6.19,5.55,15.49,13.81C185.8,466,187.53,468.67,183.33,482Z"/><path class="cls-31" d="M139.52,686.06s8.91-2.54,9.18-2.79.32-.78,1.55-.29,1.74,2.35,2.95,2.94,8.56,2.75,12.59,4.73c1.46.72,7.63,3.07,8.51,5s.62,4.91-10,4.21-22.18.8-24.5-.36S138.91,689.12,139.52,686.06Z"/><path class="cls-35" d="M174.6,412.83s2.07-22.47-19.72-18.46S144.32,423,147.25,431c0,0-.35-12.43,10.14-12.84S170.05,415.28,174.6,412.83Z"/><path class="cls-33" d="M155.68,415c-1.31-2.28-5.81-1.07-5.29,2.41s4.12,6.94,5.31,5.26S157.61,418.31,155.68,415Z"/><path class="cls-33" d="M156.18,459.11s-1.8,19.26.68,21.8c9.45,9.74,46.76,9.93,46.76,9.93l1.78,5.6S150,500.21,145,489.88c-5.95-12.41-3.64-32.66-3.64-32.66Z"/><path class="cls-35" d="M148,399.9s-8.39-8-14.36,1.07,7.09,21.84,12.38,14.29A16.84,16.84,0,0,0,148,399.9Z"/><path class="cls-36" d="M160.73,438.77a35.52,35.52,0,0,0-.69,4.34c-5.62-2.55-9.81-10.37-9.81-10.37,4.06,3.5,10.5,6,10.5,6Z"/><rect class="cls-37" x="188.06" y="496.44" width="52.89" height="2.95"/><rect class="cls-37" x="225.1" y="473.64" width="52.89" height="2.95" transform="translate(-285.95 485.66) rotate(-63.23)"/><path class="cls-33" d="M195.83,490.84s7.76-.6,9.94-2.14,16.84,4.35,17.11,5.71a3.89,3.89,0,0,1,0,2h-28.8Z"/><polygon class="cls-34" points="145.01 441.75 146.09 438.8 160.9 441.75 160.9 444.37 145.01 441.75"/><path class="cls-33" d="M156.16,459.37s1.59-11.16-6.18-12.14-8.62,10-8.62,10Z"/><path class="cls-38" d="M662.29,669.75s.9,6.31,1,7.26,10-.56,10-.56l.8-7.52S663.53,668.85,662.29,669.75Z"/><path class="cls-39" d="M663.2,676.21a26.63,26.63,0,0,1-6.18,5.46c-3,1.66-7.81,2.32-9.61,4-1.3,1.24-4.72,6.58,7.9,6.47s18.7.75,20.05-1.29-2-15.11-2-15.11S670.42,676.87,663.2,676.21Z"/><path class="cls-38" d="M591.24,669.75s.9,6.31,1,7.26,10-.56,10-.56l.8-7.52S592.48,668.85,591.24,669.75Z"/><path class="cls-39" d="M592.15,676.21a26.63,26.63,0,0,1-6.18,5.46c-3,1.66-14.22,3-16,4.74-1.29,1.24-3.45,6.24,14.31,5.77,12.61-.33,18.7.75,20-1.29s-1.95-15.11-1.95-15.11S599.54,676.94,592.15,676.21Z"/><path class="cls-40" d="M658.77,506.65s5.28,15.68,4.58,29.19,2.73,28.29,4.13,42.4c1.56,15.73,7.95,53,8.18,61.4s-1,35.28-1,35.28l-12.78.3s-10.74-65.12-13.52-71.76-16.57-54-17-59.33S658.77,506.65,658.77,506.65Z"/><path class="cls-39" d="M605,509.44s-7,37-7.95,45.3-1.54,40-2,45.18-3.09,67.62-5.56,75.3h16.34s12.54-45.4,12.54-66.89,9.69-46.7,16-60.87,20.57-14.51,24.42-40.81C658.77,506.65,610.24,501.1,605,509.44Z"/><path class="cls-18" d="M638.24,382.9s-12.88-4.81-18.82,5-5.36,29.44,1.13,31.85,16.25,1.15,19.57-5,6.33-15,6.18-20.94S641.63,384.61,638.24,382.9Z"/><path class="cls-18" d="M622.71,419.14s.52,3.38-.34,5,16.2,1.71,16.2,1.71a113.35,113.35,0,0,1,4-16.7C645.21,401.55,622.71,419.14,622.71,419.14Z"/><path class="cls-41" d="M642.58,409.19s-1.17,1.95-6,1.19-10.67-7.15-12.68-7.85-2-1.88-2-1.88l-1.26,1.84-2.13.13s1.94-5.72-1-8.05,3-18.52,18.46-13.13c0,0,11.84,3.26,11.41,10S645.23,405.84,642.58,409.19Z"/><path class="cls-26" d="M621.36,424s0-3.18,1.49-3.48,15.9-1.7,17.67-1v3.7S637.11,425.29,621.36,424Z"/><path class="cls-18" d="M622.21,398.2c.27-1.13,3.15-4.36,4.25-.9s-1.67,8.1-3.21,7.71S621.53,401.06,622.21,398.2Z"/><path class="cls-34" d="M621.36,424s-7.93,2.85-17.11,6.75c0,0-10.56,3.94-11.71,15.61-.6,6.19-7.2,39.05-8.43,41.83s-15.86,47.45-16.37,48.37,11.93,6.1,12.75,5.68,14.16-40.73,15.5-43.72c0,0,7.67-24.18,7.88-27.79,0,0,.22,10.28.63,13.16s-6.82,58.88-6.62,60.42,32.89,3.51,46,2.07a160.88,160.88,0,0,0,23.64-4.46s-10.29-44.18-10-49.08c.69-10.68,4.26-30.78,4.26-30.78l10.66,20.1-13.65,35.12,3.13,10.68s25.36-38.33,26.19-41.84-1.25-8-2.59-10.84-10.13-24.83-12.19-27.92-5.54-15.46-13.95-18.9c-7-2.88-18.84-5.24-18.84-5.24Z"/><rect class="cls-42" x="548.54" y="506.76" width="61.69" height="43.04" transform="translate(149.38 -127.36) rotate(14.38)"/><path class="cls-43" d="M562.54,545.66s-1.71,2.76-2.34,3.55,1.54,1.28,2.46.48S562.54,545.66,562.54,545.66Z"/><path class="cls-44" d="M575,555.08a6.71,6.71,0,0,0,1.23-1.72s.3-1.26.56-2.14c.09-.28.17-.52.24-.68a12,12,0,0,0,1.37-3.63c.26-1.7,1-9.34,1-9.34l-4.62-1.17-3.72-.78s-8,8-8.47,9.57a3.58,3.58,0,0,0-.09.45,14.94,14.94,0,0,0,.11,3.18c0,.27,0,2.93.65,3.43a2.59,2.59,0,0,0,2.45.59,6.18,6.18,0,0,0,3.19,1.2,3.87,3.87,0,0,0,3.35.62S574,555.73,575,555.08Z"/><path class="cls-34" d="M593.05,506.73s-10.61,32.12-12.56,35.49c0,0-7.77-1.63-12.75-5.68l11.64-34.66Z"/><path class="cls-45" d="M819.71,545.08s-.43-7.4-2.39-8.55-.82,1.14-.82,1.14,1.1,5.37,1.34,7.55A11.69,11.69,0,0,0,819.71,545.08Z"/><path class="cls-46" d="M767.59,389.53S786,388,785.48,407.35s-3.57,22.25,0,35.93-17.93-7.77-17.93-7.77Z"/><path class="cls-33" d="M752.12,441.81s-26,16.25-28.26,14.52c-3.08-2.41-11.45-23-11.45-23l-6.56,3.12s7.82,35.66,18.36,33,34.72-17.59,34.72-17.59Z"/><path class="cls-33" d="M787.63,509.08s6.77,8.64,9.16,14.35,6.38,18.22,5.85,27.92-3.72,27.88-2.79,32,1.86,12.62,2.85,15.54,5,11.42,5.38,20.18-5.58,47.28-5.31,50.87S796,671.4,796,671.4s-2.39-34.8-3.72-40.77-2.92-26.3-4.12-27.76-4.46-16.6-4-19-13-38.24-13.83-45.41-20.77-29.39-20.77-29.39A62.1,62.1,0,0,1,787.63,509.08Z"/><path class="cls-33" d="M755.31,509.08a40.81,40.81,0,0,1-.75,4.95c-.4,1.33-9.56,35.19-10.49,48.21a255.92,255.92,0,0,1-3.72,26.83c-.39,2.78.4,12.08,1.2,14.47s-4,58.83-4.38,60.15,3.18,1.73,5.71,1.33,15.27-41.43,14.47-48.34-1.59-21.63.67-27.61,22.57-49.28,22.7-51.93S789.52,488.73,755.31,509.08Z"/><path class="cls-33" d="M796.12,667.16s-.65,4.59-1.37,5.84-2.68,7.62-3.57,8.81-2.86,10.12,0,11.19,9.59,2.86,11.85-.71a14.7,14.7,0,0,0,2.2-9.89c-.36-2.73-3.07-15.3-3-16.55S796.12,667.16,796.12,667.16Z"/><path class="cls-34" d="M792.32,679.34s-.31,6.93,4.93,6.93,7.56-6.31,7.56-6.31,1.79,3.1,0,9.71-9.22,5.24-10.89,5S784.35,692.34,792.32,679.34Z"/><path class="cls-34" d="M737.73,660.93s-3.7,6.63-5.9,8c-2.74,1.67-8.06,7-9.92,7.28s-8.54,1.44-7.25,5.21c1.06,3.09,17,2.64,18.79,1.1s7.17-7.11,9.34-7,1.36,8,1.36,8h2.35s.83-7.68.93-9c.29-3.91-2.5-6.78-2.62-9s-.25-3.9-.25-3.9Z"/><path class="cls-33" d="M722.44,676s5.25,1.82,9.3-.51,11.8-5.85,14.54-5.87c0,0-1.5-4.58-1.53-5.09s-.19-2.92-.19-2.92l-6.79-1.09s-4.39,6.46-6.33,8A111.26,111.26,0,0,0,722.44,676Z"/><path class="cls-34" d="M749.48,508.49s-1.89,7.86-2.59,10.16-5.17,37.82-6.27,60.05c0,0,26.79,10.16,63.64,8.47,0,0,.9-40.84-2.49-52.39s-9.51-22.36-14.14-25.7C783.51,506.12,749.48,508.49,749.48,508.49Z"/><path class="cls-33" d="M810.65,528.43a55.45,55.45,0,0,1-1.55,6.51c-1,3.2-1.93,4.22-1.53,6,.3,1.38,1.87,2.42,2.26,2s.59-5.82,2.82-5.8-.67,6.66.66,6.17,6.43-3.28,6.11-6-2.37-4.67-2.24-8.72c.12-3.67-1-5.2-1-5.2Z"/><path class="cls-18" d="M704.09,434.83s3.1,4,5,4.46,4-4.23,4-4.23l-1.11-4Z"/><path class="cls-18" d="M711.76,433.48s1.49-4.67,1.7-5.38-.53-2.83-1.85-4.84a43.08,43.08,0,0,0-3.46-4.66c-.3-.3-.46-.63-1.43-.19a4.07,4.07,0,0,0-1.55,1.34,2.46,2.46,0,0,0-2.08,1.15,2.14,2.14,0,0,0-1.86,1.48s-1.33.08-1.61,1.16a15.75,15.75,0,0,1,.67,2.79c0,.81,1.65,4.85,3.8,8.5C704.09,434.83,707.28,437.58,711.76,433.48Z"/><path class="cls-47" d="M708.35,427.42a11.93,11.93,0,0,0-1.79,2.62c-.19.75-4.87-2-4.87-2S706,425.53,708.35,427.42Z"/><path class="cls-19" d="M708.39,419.07s2.59,5.49,1.72,6a1.52,1.52,0,0,1-1.47.12l-.14,2.75s-1.12,1.78-2.72,0c0,0-.87,1.76-2.22-.1,0,0-1.09.91-1.87.16s-2.07-4.46-2.07-4.46.08-.91,1.61-1.16a2.09,2.09,0,0,1,1.86-1.48,3.17,3.17,0,0,1,2.42-1.51,2.38,2.38,0,0,1,2.64-.79A2.79,2.79,0,0,1,708.39,419.07Z"/><path class="cls-18" d="M713.41,427.91s-3.15-2.76-5.53-3.52a1.27,1.27,0,0,0-1.45.2c-.36.44-.19,1.51,1.11,2.78a15.32,15.32,0,0,1,2.41,3.5S711.66,431.77,713.41,427.91Z"/><path class="cls-18" d="M705.51,419.39s3.2,5.7,3.17,6.37,2.1-.47,2.09-1a47.13,47.13,0,0,0-2.62-6.12A1.64,1.64,0,0,0,705.51,419.39Z"/><path class="cls-18" d="M708.8,419.69s-5.11-9.53-5.86-9.18c-1.09.5-.8,3.14,3.51,10.26C710.64,427.69,708.8,419.69,708.8,419.69Z"/><path class="cls-20" d="M750.72,461.57l-10.52-14s18.81-14.56,24.61-5.3C764.81,442.31,765.23,457.57,750.72,461.57Z"/><path class="cls-20" d="M744.4,461.08c.3,4.68,2.69,8.56,3.09,10.26s0,5.57.5,9.46,2,22.41,1.49,27.69,36.24,2.89,39,1.3c0,0-6.18-11.06-6.35-15.65-.06-1.57-1-6.47,1.6-10.06,1.36-1.89,3.9-7.91,6.43-12.32h0c1-1.7,2-3.41,2.73-4.68h0a17.74,17.74,0,0,0,1.45-3.61s1.64-20.32-2.85-22.61A22.83,22.83,0,0,0,780.26,438a31.72,31.72,0,0,1-7.27-1.1L762.73,438s-6.57,2.29-9.16,2.49-5.88,5.78-5.58,9.36S744.11,456.4,744.4,461.08Z"/><path class="cls-45" d="M812.43,537s-3,.75-2.79,10.79l3.36-.56s-.07-5.55.94-8.57C813.94,538.61,813.77,536.65,812.43,537Z"/><polygon class="cls-45" points="800.11 550 826.27 542.58 826.19 574.8 800.16 590.4 800.11 550"/><polygon class="cls-45" points="800.16 590.4 803.44 591.01 828.76 575.26 828.44 542.73 826.27 542.58 800.16 590.4"/><path class="cls-18" d="M787.15,439s8.15,0,11.83,7.14,4.09,14.74,5,17.43,3.24,18.51,4.14,20.8,6.22,17.84,7.52,26.61a175.32,175.32,0,0,1,1.56,17.65l-6.53-.2s-6.49-23.85-8.72-29.53c-1.91-4.85-2.65-13.32-3.74-16.31s-7.87-24-9.27-25.5S780.2,440.32,787.15,439Z"/><path class="cls-20" d="M789.82,468.06l16.6-5.23s-5.09-24.49-19.27-23.83C775.78,439.52,789.82,468.06,789.82,468.06Z"/><path class="cls-18" d="M769.39,391.49c-4.56-.75-15,.4-17.95,12.36a38.72,38.72,0,0,0,.5,6c.5,2.66-2.68,10-2.12,10.43a16.92,16.92,0,0,0,3,1.2s1.73,8.6,4.65,8.86,14.19-.75,20.56-10.47S787.8,394.5,769.39,391.49Z"/><path class="cls-18" d="M761.82,427s.23,1.2.44,3c.1.91.21,2,.27,3.07.18,3.09.09,6.66-1,8.92,0,0,5.71,3.54,11.83-5,0,0-.59-10.62,2.92-16.24S761.82,427,761.82,427Z"/><path class="cls-46" d="M751.44,403.85s6.86,5.93,14.13,7.8,11.12,10,11.12,10,12.86-12.83,5.1-25.27S751.46,389.51,751.44,403.85Z"/><path class="cls-36" d="M762.26,430c.1.91.21,2,.27,3.07a32.07,32.07,0,0,0,9.94-7.37C768.71,428.37,762.26,430,762.26,430Z"/><path class="cls-46" d="M766.91,412.07s7.43,20,6.54,24.8c0,0,3.94-.67,10.94,1.47C784.39,438.34,781,402.68,766.91,412.07Z"/><path class="cls-18" d="M775.94,437.52s-2.45,15-11.52,13.3-2.19-12.68-2.19-12.68S765.77,435,775.94,437.52Z"/><path class="cls-4" d="M599.07,251.14a47.81,47.81,0,1,1-47.81-47.81A47.64,47.64,0,0,1,599.07,251.14Z"/><path class="cls-6" d="M585.46,276.77a6.74,6.74,0,0,0-.8-.47l0,0h0c-2.1-1.16-8.25-4.22-20.38-7.7h0c-2.2-.67-3.87-1.11-4.44-1.25l-1-1.64a52.72,52.72,0,0,1-.08-5.76c1.71-2,3.25-5.08,4.12-9.91.27.21.49-.25.49-.25-.16-.27,2.3-6.28,1.86-7.63-.25-.77-.76-.67-1.16-.45.06-.35.12-.71.18-1.1,0,0,1-9.21-3.68-14.34a5.1,5.1,0,0,0-2.2-.58c-7.49-2.29-12-1.27-14.79-.06-4.17,3.41-4.49,9.22-4.3,12.42.09.76.17,1.52.26,2.27v0c0,.3.07.58.11.87a.72.72,0,0,0-1.19.4c-.5,1.33,1.32,7.33,1.55,7.7,0,0,.39.62.7.34v0c.86,5.27,2.41,8.53,4,10.53-.11,2.14-.42,4.65-.64,6.26l-1.85,1.93h0l-.3.1h0C521,274,515,277.89,515,277.89a5.62,5.62,0,0,0-1.6,2.48,47.82,47.82,0,0,0,74.44,1.53C587,279.7,586.32,277.63,585.46,276.77Z"/><rect class="cls-48" x="214.51" y="213.46" width="0.86" height="80.8"/><rect class="cls-48" x="275.39" y="213.46" width="0.86" height="80.8"/><rect class="cls-48" x="336.27" y="213.46" width="0.86" height="80.8"/><rect class="cls-48" x="397.15" y="213.46" width="0.86" height="80.8"/><rect class="cls-48" x="458.03" y="213.46" width="0.86" height="80.8"/><rect class="cls-49" x="214.94" y="299.05" width="9.69" height="2.81"/><rect class="cls-50" x="214.94" y="203.51" width="14.58" height="2.11"/><rect class="cls-50" x="214.94" y="207.4" width="20.68" height="2.11"/><rect class="cls-50" x="275.17" y="203.51" width="17.12" height="2.11"/><rect class="cls-50" x="275.17" y="207.4" width="10.95" height="2.11"/><rect class="cls-50" x="337.13" y="203.51" width="10.61" height="2.11"/><rect class="cls-50" x="337.13" y="207.4" width="12.36" height="2.11"/><rect class="cls-50" x="398.01" y="203.51" width="15.45" height="2.11"/><rect class="cls-50" x="398.01" y="207.4" width="12.37" height="2.11"/><rect class="cls-50" x="458.46" y="203.51" width="9.23" height="2.11"/><rect class="cls-50" x="458.46" y="207.4" width="7.39" height="2.11"/><rect class="cls-49" x="275.82" y="299.05" width="9.69" height="2.81"/><rect class="cls-49" x="337.13" y="299.05" width="9.69" height="2.81"/><rect class="cls-49" x="398.01" y="299.05" width="9.69" height="2.81"/><rect class="cls-49" x="458.89" y="299.05" width="9.69" height="2.81"/><path class="cls-51" d="M437.36,270.25c-19,0-35.49-7.38-52.7-15.08-21.24-9.5-43.21-19.32-72.48-16.63-18.69,1.71-30.42,8.56-40.77,14.6-9.37,5.47-18.23,10.28-30.23,10.69-19.4.66-26.12-6.78-26.24-7.23v-4.77h0c0,.08,4.26,8.43,26.22,8.33,10.81-.05,18.79-4.71,28-10.1,10.73-6.27,22.9-13.37,42.57-15.18,30.45-2.79,52.95,7.27,74.72,17,22.77,10.18,44.5,19.73,72,11.45v3.92A68.45,68.45,0,0,1,437.36,270.25Z"/><path class="cls-52" d="M323.38,269.34c-14,0-25.13-8.48-36-16.78-8.25-6.29-16.82-12.73-26.7-15.9-30.16-9.68-45.59,8-45.73,8.16v-5.38c.17-.19,2.92-3.4,10.88-6.47,7.25-2.8,19.41-5,36.19.22,10.63,3.33,19.46,10.06,28,16.57,17.32,13.21,32.27,24.61,58.25,6.75,19.67-13.53,38.21-26.43,56.46-31.14,17.85-4.6,36.45-1.23,53.87,14.43l-.13,4.89c-37-33.42-68.49-12.25-107.73,14.73C340.34,266.57,331.39,269.34,323.38,269.34Z"/></g></g></svg>