<svg width="17" height="16" viewBox="0 0 17 16" fill="none" xmlns="http://www.w3.org/2000/svg">
<path d="M4.09858 1.86652C4.09858 2.9013 3.30804 3.73078 2.03707 3.73078H2.01339C0.789774 3.73153 0 2.90055 0 1.86652C0 0.806919 0.814979 5.24722e-07 2.06075 5.24722e-07C3.30804 -0.000751496 4.07566 0.806919 4.09858 1.86652ZM0.213865 15.9992H3.85874V5.20549H0.213865V15.9992ZM12.8044 4.95281C10.8712 4.95281 10.0058 5.99812 9.5193 6.7351V6.76969H9.49562C9.50479 6.75917 9.51319 6.74713 9.5193 6.7351V5.20624H5.87519C5.92254 6.21771 5.87519 16 5.87519 16H9.5193V9.9718C9.5193 9.64693 9.54145 9.32882 9.63921 9.09645C9.90349 8.45422 10.5038 7.78267 11.5075 7.78267C12.8281 7.78267 13.3559 8.77458 13.3559 10.2245V16H17V9.81162C17.0008 6.4937 15.2012 4.95281 12.8044 4.95281Z" fill="#778CA2"/>
</svg>
