<svg width="107" height="31" viewBox="0 0 107 31" fill="none" xmlns="http://www.w3.org/2000/svg">
<g clip-path="url(#clip0)">
<path d="M40.3228 0.206429H45.4836C46.7222 0.206429 47.8231 0.412859 48.7177 0.894531C49.681 1.3762 50.4379 2.06431 50.9196 2.89003C51.4701 3.71575 51.6765 4.74791 51.6765 5.84887C51.6765 6.94984 51.4013 7.98199 50.9196 8.80772C50.3691 9.63344 49.681 10.3215 48.7177 10.8032C47.7543 11.2849 46.6534 11.4913 45.4836 11.4913H40.3228V0.206429V0.206429ZM45.346 9.3582C46.4469 9.3582 47.4103 9.01415 48.0296 8.39485C48.7177 7.77556 49.0617 6.88103 49.0617 5.84887C49.0617 4.74791 48.7177 3.92218 48.0296 3.30289C47.3415 2.6836 46.4469 2.33955 45.346 2.33955H42.9376V9.3582H45.346Z" fill="#292929"/>
<path d="M53.672 0.206429H56.2868V11.5601H53.672V0.206429Z" fill="#292929"/>
<path d="M66.6771 5.71125H69.0855V10.3215C68.4662 10.8032 67.7781 11.1473 66.9524 11.4225C66.1267 11.6977 65.3009 11.7666 64.4752 11.7666C63.3054 11.7666 62.2045 11.4913 61.3099 11.0096C60.3466 10.528 59.6585 9.83987 59.108 8.94534C58.5575 8.0508 58.2823 7.01865 58.2823 5.91769C58.2823 4.81672 58.5575 3.78457 59.108 2.89003C59.6585 1.9955 60.4154 1.3074 61.3099 0.825724C62.2733 0.275241 63.3743 0 64.544 0C65.5074 0 66.4707 0.137621 67.2276 0.481672C68.0533 0.825723 68.7415 1.3074 69.2919 1.92669L67.6405 3.50932C66.8148 2.6836 65.8514 2.20193 64.6816 2.20193C63.9247 2.20193 63.3054 2.33955 62.755 2.6836C62.2045 2.95884 61.7228 3.44051 61.4476 3.991C61.1035 4.54148 60.9659 5.16077 60.9659 5.91769C60.9659 6.60579 61.1035 7.22508 61.4476 7.77556C61.7916 8.32605 62.2045 8.73891 62.755 9.08296C63.3054 9.3582 63.9247 9.56463 64.6816 9.56463C65.4386 9.56463 66.1267 9.42701 66.746 9.08296V5.71125H66.6771Z" fill="#292929"/>
<path d="M71.4939 0.206429H74.1087V11.5601H71.4939V0.206429Z" fill="#292929"/>
<path d="M79.2006 2.33955H75.5537V0.206429H85.4624V2.33955H81.8154V11.5601H79.2006V2.33955V2.33955Z" fill="#292929"/>
<path d="M93.7196 9.08296H88.4212L87.389 11.4913H84.7054L89.7286 0.137619H92.3434L97.4353 11.4913H94.6829L93.7196 9.08296ZM92.8939 7.08746L91.1048 2.75241L89.3157 7.08746H92.8939Z" fill="#292929"/>
<path d="M98.674 0.206429H101.289V9.42701H107V11.5601H98.674V0.206429V0.206429Z" fill="#292929"/>
<path d="M49.0617 28.9003V30.9646H40.3228V19.6109H48.8553V21.7441H42.8688V24.2212H48.1672V26.2855H42.8688V28.9003H49.0617Z" fill="#292929"/>
<path d="M56.4932 26.9736V30.9646H53.8784V26.9048L49.4746 19.6109H52.2958L55.3235 24.6341L58.3511 19.6109H60.8971L56.4932 26.9736Z" fill="#292929"/>
<path d="M70.6682 28.9003V30.9646H61.9293V19.6109H70.5305V21.7441H64.5441V24.2212H69.8424V26.2855H64.5441V28.9003H70.6682Z" fill="#292929"/>
<path d="M26.9048 30.9646L0 18.51V12.4547L26.9048 0V6.46817L6.81222 15.4135L26.9048 24.4277V30.9646Z" fill="#00B2CA"/>
<path opacity="0.2" d="M9.77106 14.1061L6.74341 15.4823L0 12.4547L2.95884 11.0785L9.77106 14.1061Z" fill="url(#paint0_linear)"/>
</g>
<defs>
<linearGradient id="paint0_linear" x1="5.77139" y1="11.7684" x2="4.03359" y2="14.7784" gradientUnits="userSpaceOnUse">
<stop offset="0.000379604" stop-color="#272525" stop-opacity="0"/>
<stop offset="1"/>
</linearGradient>
<clipPath id="clip0">
<rect width="107" height="30.9646" fill="white"/>
</clipPath>
</defs>
</svg>
