<?xml version="1.0"?>
<svg xmlns="http://www.w3.org/2000/svg" height="512px" viewBox="0 0 496 496" width="512px"><g><path d="m456 112h-24v16h24c13.230469 0 24 10.769531 24 24v216h-113.886719l-32 16h-318.113281v-232c0-13.230469 10.769531-24 24-24h24v-16h-24c-22.054688 0-40 17.945312-40 40v256c0 22.054688 17.945312 40 40 40h104v32h-32v16h272v-16h-32v-32h104c22.054688 0 40-17.945312 40-40v-256c0-22.054688-17.945312-40-40-40zm-120 368h-176v-32h176zm120-48h-416c-13.230469 0-24-10.769531-24-24v-8h321.886719l32-16h110.113281v24c0 13.230469-10.769531 24-24 24zm0 0" data-original="#000000" class="active-path" data-old_color="#000000" fill="#00B2CA"/><path d="m416 400h16v16h-16zm0 0" data-original="#000000" class="active-path" data-old_color="#000000" fill="#00B2CA"/><path d="m448 400h16v16h-16zm0 0" data-original="#000000" class="active-path" data-old_color="#000000" fill="#00B2CA"/><path d="m384 400h16v16h-16zm0 0" data-original="#000000" class="active-path" data-old_color="#000000" fill="#00B2CA"/><path d="m240 158.527344v33.472656h16v-33.472656c9.289062-3.3125 16-12.113282 16-22.527344 0-13.230469-10.769531-24-24-24s-24 10.769531-24 24c0 10.414062 6.710938 19.214844 16 22.527344zm8-30.527344c4.414062 0 8 3.59375 8 8s-3.585938 8-8 8-8-3.59375-8-8 3.585938-8 8-8zm0 0" data-original="#000000" class="active-path" data-old_color="#000000" fill="#00B2CA"/><path d="m192 304h16v64h80v-64h16v-106.847656c9.984375-12.359375 16-28.0625 16-45.152344v-48c0-10.414062-6.710938-19.214844-16-22.527344v-25.472656c0-30.878906-25.128906-56-56-56s-56 25.121094-56 56v25.472656c-9.289062 3.3125-16 12.113282-16 22.527344v48c0 17.097656 6.015625 32.792969 16 45.152344zm16-92.175781c11.449219 7.679687 25.207031 12.175781 40 12.175781s28.550781-4.496094 40-12.175781v44.175781h-17.367188c-3.304687-9.3125-12.199218-16-22.632812-16s-19.328125 6.6875-22.632812 16h-17.367188zm64 140.175781h-48v-48h16v32h16v-32h16zm-64-64v-16h32v-8c0-4.40625 3.585938-8 8-8s8 3.59375 8 8v8h32v16zm40-272c22.054688 0 40 17.945312 40 40v24h-80v-24c0-22.054688 17.945312-40 40-40zm-56 88c0-4.40625 3.585938-8 8-8h96c4.414062 0 8 3.59375 8 8v48c0 30.878906-25.128906 56-56 56s-56-25.121094-56-56zm0 0" data-original="#000000" class="active-path" data-old_color="#000000" fill="#00B2CA"/><path d="m336 96h80v16h-80zm0 0" data-original="#000000" class="active-path" data-old_color="#000000" fill="#00B2CA"/><path d="m333.027344 64.539062 80.007812-31.972656 5.9375 14.855469-80.007812 31.976563zm0 0" data-original="#000000" class="active-path" data-old_color="#000000" fill="#00B2CA"/><path d="m333.035156 143.421875 5.945313-14.855469 79.996093 32-5.941406 14.855469zm0 0" data-original="#000000" class="active-path" data-old_color="#000000" fill="#00B2CA"/><path d="m80 96h80v16h-80zm0 0" data-original="#000000" class="active-path" data-old_color="#000000" fill="#00B2CA"/><path d="m77.03125 47.425781 5.941406-14.855469 80 32-5.941406 14.855469zm0 0" data-original="#000000" class="active-path" data-old_color="#000000" fill="#00B2CA"/><path d="m77.03125 160.550781 80.007812-31.972656 5.9375 14.855469-80.007812 31.972656zm0 0" data-original="#000000" class="active-path" data-old_color="#000000" fill="#00B2CA"/><path d="m32 368h144v-112h-144zm16-96h112v80h-112zm0 0" data-original="#000000" class="active-path" data-old_color="#000000" fill="#00B2CA"/><path d="m64 320h80v16h-80zm0 0" data-original="#000000" class="active-path" data-old_color="#000000" fill="#00B2CA"/><path d="m64 288h80v16h-80zm0 0" data-original="#000000" class="active-path" data-old_color="#000000" fill="#00B2CA"/><path d="m320 352h144v-112h-144zm16-96h112v80h-112zm0 0" data-original="#000000" class="active-path" data-old_color="#000000" fill="#00B2CA"/><path d="m352 304h80v16h-80zm0 0" data-original="#000000" class="active-path" data-old_color="#000000" fill="#00B2CA"/><path d="m352 272h80v16h-80zm0 0" data-original="#000000" class="active-path" data-old_color="#000000" fill="#00B2CA"/></g> </svg>
