<svg width="40" height="40" viewBox="0 0 40 40" fill="none" xmlns="http://www.w3.org/2000/svg">
<path d="M28.125 17.2412L27.3169 16.4331L26.4331 17.3169L27.6831 18.5669C27.8003 18.684 27.9593 18.7499 28.125 18.7499C28.2907 18.7499 28.4497 18.684 28.5669 18.5669L31.0669 16.0669L30.1831 15.1831L28.125 17.2412Z" fill="#00B2CA"/>
<path d="M28.125 22.2412L27.3169 21.4331L26.4331 22.3169L27.6831 23.5669C27.8003 23.684 27.9593 23.7499 28.125 23.7499C28.2907 23.7499 28.4497 23.684 28.5669 23.5669L31.0669 21.0669L30.1831 20.1831L28.125 22.2412Z" fill="#00B2CA"/>
<path d="M28.125 27.8662L27.3169 27.0581L26.4331 27.9419L27.6831 29.1919C27.8003 29.309 27.9593 29.3749 28.125 29.3749C28.2907 29.3749 28.4497 29.309 28.5669 29.1919L31.0669 26.6919L30.1831 25.8081L28.125 27.8662Z" fill="#00B2CA"/>
<path d="M35.625 13.125H31.25V6.875C31.2485 6.37818 31.0505 5.90212 30.6992 5.55081C30.3479 5.1995 29.8718 5.00148 29.375 5H23.125V4.375C23.1235 3.87818 22.9255 3.40212 22.5742 3.05081C22.2229 2.6995 21.7468 2.50148 21.25 2.5H20V1.875C20 1.70924 19.9342 1.55027 19.8169 1.43306C19.6997 1.31585 19.5408 1.25 19.375 1.25H14.375C14.2092 1.25 14.0503 1.31585 13.9331 1.43306C13.8158 1.55027 13.75 1.70924 13.75 1.875V2.5H12.5C12.0032 2.50148 11.5271 2.6995 11.1758 3.05081C10.8245 3.40212 10.6265 3.87818 10.625 4.375V5H4.375C3.87818 5.00148 3.40212 5.1995 3.05081 5.55081C2.6995 5.90212 2.50148 6.37818 2.5 6.875V36.875C2.50148 37.3718 2.6995 37.8479 3.05081 38.1992C3.40212 38.5505 3.87818 38.7485 4.375 38.75H29.375C29.8718 38.7485 30.3479 38.5505 30.6992 38.1992C31.0505 37.8479 31.2485 37.3718 31.25 36.875V31.875H35.625C36.1218 31.8735 36.5979 31.6755 36.9492 31.3242C37.3005 30.9729 37.4985 30.4968 37.5 30V15C37.4985 14.5032 37.3005 14.0271 36.9492 13.6758C36.5979 13.3245 36.1218 13.1265 35.625 13.125V13.125ZM20 3.75H21.25C21.4158 3.75 21.5747 3.81585 21.6919 3.93306C21.8092 4.05027 21.875 4.20924 21.875 4.375V5H20V3.75ZM20 6.25H29.375C29.5408 6.25 29.6997 6.31585 29.8169 6.43306C29.9342 6.55027 30 6.70924 30 6.875V13.125H29.375V7.5C29.375 7.33424 29.3092 7.17527 29.1919 7.05806C29.0747 6.94085 28.9158 6.875 28.75 6.875H20V6.25ZM15 2.5H18.75V7.5C18.75 7.66576 18.6842 7.82473 18.5669 7.94194C18.4497 8.05915 18.2908 8.125 18.125 8.125H15.625C15.4592 8.125 15.3003 8.05915 15.1831 7.94194C15.0658 7.82473 15 7.66576 15 7.5V2.5ZM13.8625 8.125C13.9922 8.48921 14.231 8.80462 14.5464 9.02828C14.8618 9.25194 15.2384 9.37301 15.625 9.375H18.125C18.5116 9.37301 18.8882 9.25194 19.2036 9.02828C19.519 8.80462 19.7578 8.48921 19.8875 8.125H28.125V13.125H25.625C25.1282 13.1265 24.6521 13.3245 24.3008 13.6758C23.9495 14.0271 23.7515 14.5032 23.75 15V30C23.7515 30.4968 23.9495 30.9729 24.3008 31.3242C24.6521 31.6755 25.1282 31.8735 25.625 31.875H28.125V35.625H5.625V8.125H13.8625ZM11.875 4.375C11.875 4.20924 11.9408 4.05027 12.0581 3.93306C12.1753 3.81585 12.3342 3.75 12.5 3.75H13.75V5H11.875V4.375ZM30 36.875C30 37.0408 29.9342 37.1997 29.8169 37.3169C29.6997 37.4342 29.5408 37.5 29.375 37.5H4.375C4.20924 37.5 4.05027 37.4342 3.93306 37.3169C3.81585 37.1997 3.75 37.0408 3.75 36.875V6.875C3.75 6.70924 3.81585 6.55027 3.93306 6.43306C4.05027 6.31585 4.20924 6.25 4.375 6.25H13.75V6.875H5C4.83424 6.875 4.67527 6.94085 4.55806 7.05806C4.44085 7.17527 4.375 7.33424 4.375 7.5V36.25C4.375 36.4158 4.44085 36.5747 4.55806 36.6919C4.67527 36.8092 4.83424 36.875 5 36.875H28.75C28.9158 36.875 29.0747 36.8092 29.1919 36.6919C29.3092 36.5747 29.375 36.4158 29.375 36.25V31.875H30V36.875ZM36.25 30C36.25 30.1658 36.1842 30.3247 36.0669 30.4419C35.9497 30.5592 35.7908 30.625 35.625 30.625H25.625C25.4592 30.625 25.3003 30.5592 25.1831 30.4419C25.0658 30.3247 25 30.1658 25 30V15C25 14.8342 25.0658 14.6753 25.1831 14.5581C25.3003 14.4408 25.4592 14.375 25.625 14.375H35.625C35.7908 14.375 35.9497 14.4408 36.0669 14.5581C36.1842 14.6753 36.25 14.8342 36.25 15V30Z" fill="#00B2CA"/>
<path d="M31.25 16.875H35V18.125H31.25V16.875Z" fill="#00B2CA"/>
<path d="M31.25 21.875H35V23.125H31.25V21.875Z" fill="#00B2CA"/>
<path d="M31.25 27.5H35V28.75H31.25V27.5Z" fill="#00B2CA"/>
<path d="M16.25 14.375H20C20.1658 14.375 20.3247 14.3092 20.4419 14.1919C20.5592 14.0747 20.625 13.9158 20.625 13.75V13.125H22.5V11.875H20.625V11.25C20.625 11.0842 20.5592 10.9253 20.4419 10.8081C20.3247 10.6908 20.1658 10.625 20 10.625H16.25C16.0842 10.625 15.9253 10.6908 15.8081 10.8081C15.6908 10.9253 15.625 11.0842 15.625 11.25V11.875H11.875V11.25C11.875 11.0842 11.8092 10.9253 11.6919 10.8081C11.5747 10.6908 11.4158 10.625 11.25 10.625H7.5C7.33424 10.625 7.17527 10.6908 7.05806 10.8081C6.94085 10.9253 6.875 11.0842 6.875 11.25V13.75C6.875 13.9158 6.94085 14.0747 7.05806 14.1919C7.17527 14.3092 7.33424 14.375 7.5 14.375H8.75V16.875H7.5C7.33424 16.875 7.17527 16.9408 7.05806 17.0581C6.94085 17.1753 6.875 17.3342 6.875 17.5V20C6.875 20.1658 6.94085 20.3247 7.05806 20.4419C7.17527 20.5592 7.33424 20.625 7.5 20.625H8.75V23.125H7.5C7.33424 23.125 7.17527 23.1908 7.05806 23.3081C6.94085 23.4253 6.875 23.5842 6.875 23.75V26.25C6.875 26.4158 6.94085 26.5747 7.05806 26.6919C7.17527 26.8092 7.33424 26.875 7.5 26.875H8.75V29.375H7.5C7.33424 29.375 7.17527 29.4408 7.05806 29.5581C6.94085 29.6753 6.875 29.8342 6.875 30V32.5C6.875 32.6658 6.94085 32.8247 7.05806 32.9419C7.17527 33.0592 7.33424 33.125 7.5 33.125H11.25C11.4158 33.125 11.5747 33.0592 11.6919 32.9419C11.8092 32.8247 11.875 32.6658 11.875 32.5V31.875H15.625V32.5C15.625 32.6658 15.6908 32.8247 15.8081 32.9419C15.9253 33.0592 16.0842 33.125 16.25 33.125H20C20.1658 33.125 20.3247 33.0592 20.4419 32.9419C20.5592 32.8247 20.625 32.6658 20.625 32.5V31.875H22.5V30.625H20.625V30C20.625 29.8342 20.5592 29.6753 20.4419 29.5581C20.3247 29.4408 20.1658 29.375 20 29.375H16.25C16.0842 29.375 15.9253 29.4408 15.8081 29.5581C15.6908 29.6753 15.625 29.8342 15.625 30V30.625H11.875V30C11.875 29.8342 11.8092 29.6753 11.6919 29.5581C11.5747 29.4408 11.4158 29.375 11.25 29.375H10V26.875H11.25C11.4158 26.875 11.5747 26.8092 11.6919 26.6919C11.8092 26.5747 11.875 26.4158 11.875 26.25V23.75C11.875 23.5842 11.8092 23.4253 11.6919 23.3081C11.5747 23.1908 11.4158 23.125 11.25 23.125H10V20.625H11.25C11.4158 20.625 11.5747 20.5592 11.6919 20.4419C11.8092 20.3247 11.875 20.1658 11.875 20V19.375H15.625V20C15.625 20.1658 15.6908 20.3247 15.8081 20.4419C15.9253 20.5592 16.0842 20.625 16.25 20.625H17.5V23.125H16.25C16.0842 23.125 15.9253 23.1908 15.8081 23.3081C15.6908 23.4253 15.625 23.5842 15.625 23.75V26.25C15.625 26.4158 15.6908 26.5747 15.8081 26.6919C15.9253 26.8092 16.0842 26.875 16.25 26.875H20C20.1658 26.875 20.3247 26.8092 20.4419 26.6919C20.5592 26.5747 20.625 26.4158 20.625 26.25V25.625H22.5V24.375H20.625V23.75C20.625 23.5842 20.5592 23.4253 20.4419 23.3081C20.3247 23.1908 20.1658 23.125 20 23.125H18.75V20.625H20C20.1658 20.625 20.3247 20.5592 20.4419 20.4419C20.5592 20.3247 20.625 20.1658 20.625 20V19.375H22.5V18.125H20.625V17.5C20.625 17.3342 20.5592 17.1753 20.4419 17.0581C20.3247 16.9408 20.1658 16.875 20 16.875H16.25C16.0842 16.875 15.9253 16.9408 15.8081 17.0581C15.6908 17.1753 15.625 17.3342 15.625 17.5V18.125H11.875V17.5C11.875 17.3342 11.8092 17.1753 11.6919 17.0581C11.5747 16.9408 11.4158 16.875 11.25 16.875H10V14.375H11.25C11.4158 14.375 11.5747 14.3092 11.6919 14.1919C11.8092 14.0747 11.875 13.9158 11.875 13.75V13.125H15.625V13.75C15.625 13.9158 15.6908 14.0747 15.8081 14.1919C15.9253 14.3092 16.0842 14.375 16.25 14.375ZM16.875 11.875H19.375V13.125H16.875V11.875ZM16.875 30.625H19.375V31.875H16.875V30.625ZM19.375 24.375V25.625H16.875V24.375H19.375ZM16.875 18.125H19.375V19.375H16.875V18.125ZM10.625 30.625V31.875H8.125V30.625H10.625ZM10.625 24.375V25.625H8.125V24.375H10.625ZM10.625 18.125V19.375H8.125V18.125H10.625ZM10.625 13.125H8.125V11.875H10.625V13.125Z" fill="#00B2CA"/>
</svg>
