<?xml version="1.0"?>
<svg xmlns="http://www.w3.org/2000/svg" height="512px" viewBox="0 0 64 64" width="512px" class=""><g><path d="m27 10a3 3 0 0 0 -3 3v6a2.972 2.972 0 0 0 .573 1.749l-1.873 1.251h-.7a5.006 5.006 0 0 0 -5 5v.184a3 3 0 0 0 -2 2.816h2a1 1 0 0 1 2 0h2a3 3 0 0 0 -2-2.816v-.184a3 3 0 0 1 3-3v7a1 1 0 0 0 .105.447l2 4a1 1 0 0 0 .895.553h14a1 1 0 0 0 .9-.553l2-4a1 1 0 0 0 .1-.447v-7a3 3 0 0 1 3 3v.184a3 3 0 0 0 -2 2.816h2a1 1 0 0 1 2 0h2a3 3 0 0 0 -2-2.816v-.184a5.006 5.006 0 0 0 -5-5h-.7l-1.876-1.251a2.972 2.972 0 0 0 .576-1.749v-6a3 3 0 0 0 -3-3h-4v-2.184a3 3 0 1 0 -2 0v2.184zm5-6a1 1 0 1 1 -1 1 1 1 0 0 1 1-1zm6.382 30h-12.764l-1-2h14.764zm-10.24-4a3.981 3.981 0 0 1 7.716 0zm11.858 0h-2.09a5.993 5.993 0 0 0 -11.82 0h-2.09v-6.465l2.3-1.535h11.4l2.3 1.535zm-6-10h-4v-1h4zm4-7v6a1 1 0 0 1 -1 1h-1v-2a1 1 0 0 0 -1-1h-6a1 1 0 0 0 -1 1v2h-1a1 1 0 0 1 -1-1v-6a1 1 0 0 1 1-1h10a1 1 0 0 1 1 1z" data-original="#000000" class="active-path" data-old_color="#000000" fill="#00B2CA"/><path d="m28 14h2v2h-2z" data-original="#000000" class="active-path" data-old_color="#000000" fill="#00B2CA"/><path d="m34 14h2v2h-2z" data-original="#000000" class="active-path" data-old_color="#000000" fill="#00B2CA"/><path d="m55 8h-1v2h1a3 3 0 0 1 3 3v27h-52v-27a3 3 0 0 1 3-3h1v-2h-1a5.006 5.006 0 0 0 -5 5v32a5.006 5.006 0 0 0 5 5h14.867l-.75 6h-2.117a3 3 0 0 0 0 6h22a3 3 0 0 0 0-6h-2.117l-.75-6h14.867a5.006 5.006 0 0 0 5-5v-32a5.006 5.006 0 0 0 -5-5zm-11 51a1 1 0 0 1 -1 1h-22a1 1 0 0 1 0-2h22a1 1 0 0 1 1 1zm-5.133-3h-13.734l.75-6h12.234zm16.133-8h-46a3 3 0 0 1 -3-3v-3h52v3a3 3 0 0 1 -3 3z" data-original="#000000" class="active-path" data-old_color="#000000" fill="#00B2CA"/><path d="m39 8h7v2h-7z" data-original="#000000" class="active-path" data-old_color="#000000" fill="#00B2CA"/><path d="m18 8h7v2h-7z" data-original="#000000" class="active-path" data-old_color="#000000" fill="#00B2CA"/><path d="m52 44h2v2h-2z" data-original="#000000" class="active-path" data-old_color="#000000" fill="#00B2CA"/><path d="m48 8h4a1 1 0 0 0 1-1v-4a1 1 0 0 0 -1-1h-4a1 1 0 0 0 -1 1v4a1 1 0 0 0 1 1zm1-4h2v2h-2z" data-original="#000000" class="active-path" data-old_color="#000000" fill="#00B2CA"/><path d="m48.707 14.707 2-2a1 1 0 0 0 .293-.707v-2h-2v1.586l-1.414 1.414h-5.586v2h6a1 1 0 0 0 .707-.293z" data-original="#000000" class="active-path" data-old_color="#000000" fill="#00B2CA"/><path d="m52 30h4v2h-4z" data-original="#000000" class="active-path" data-old_color="#000000" fill="#00B2CA"/><path d="m52 34h4v2h-4z" data-original="#000000" class="active-path" data-old_color="#000000" fill="#00B2CA"/><path d="m53 17a3 3 0 1 0 3 3 3 3 0 0 0 -3-3zm0 4a1 1 0 1 1 1-1 1 1 0 0 1 -1 1z" data-original="#000000" class="active-path" data-old_color="#000000" fill="#00B2CA"/><path d="m44.707 32.293-1.414 1.414 2 2a1 1 0 0 0 .707.293h4v-2h-3.586z" data-original="#000000" class="active-path" data-old_color="#000000" fill="#00B2CA"/><path d="m44 19h4v2h-4z" data-original="#000000" class="active-path" data-old_color="#000000" fill="#00B2CA"/><path d="m12 8h4a1 1 0 0 0 1-1v-4a1 1 0 0 0 -1-1h-4a1 1 0 0 0 -1 1v4a1 1 0 0 0 1 1zm1-4h2v2h-2z" data-original="#000000" class="active-path" data-old_color="#000000" fill="#00B2CA"/><path d="m13 10v2a1 1 0 0 0 .293.707l2 2a1 1 0 0 0 .707.293h6v-2h-5.586l-1.414-1.414v-1.586z" data-original="#000000" class="active-path" data-old_color="#000000" fill="#00B2CA"/><path d="m8 30h4v2h-4z" data-original="#000000" class="active-path" data-old_color="#000000" fill="#00B2CA"/><path d="m8 34h4v2h-4z" data-original="#000000" class="active-path" data-old_color="#000000" fill="#00B2CA"/><path d="m8 20a3 3 0 1 0 3-3 3 3 0 0 0 -3 3zm3-1a1 1 0 1 1 -1 1 1 1 0 0 1 1-1z" data-original="#000000" class="active-path" data-old_color="#000000" fill="#00B2CA"/><path d="m14 34v2h4a1 1 0 0 0 .707-.293l2-2-1.414-1.414-1.707 1.707z" data-original="#000000" class="active-path" data-old_color="#000000" fill="#00B2CA"/><path d="m16 19h4v2h-4z" data-original="#000000" class="active-path" data-old_color="#000000" fill="#00B2CA"/></g> </svg>
