<svg width="40" height="40" viewBox="0 0 40 40" fill="none" xmlns="http://www.w3.org/2000/svg">
<path d="M38.125 32.5H32.5V30.625C32.5 30.4592 32.4342 30.3003 32.3169 30.1831C32.1997 30.0659 32.0408 30 31.875 30H30.625V28.125H35C35.4968 28.1235 35.9729 27.9255 36.3242 27.5742C36.6755 27.2229 36.8735 26.7468 36.875 26.25V18.125C36.8735 17.6282 36.6755 17.1521 36.3242 16.8008C35.9729 16.4495 35.4968 16.2515 35 16.25H21.25C20.7532 16.2515 20.2771 16.4495 19.9258 16.8008C19.5745 17.1521 19.3765 17.6282 19.375 18.125V26.25C19.3765 26.7468 19.5745 27.2229 19.9258 27.5742C20.2771 27.9255 20.7532 28.1235 21.25 28.125H25.625V30H24.375C24.2092 30 24.0503 30.0659 23.9331 30.1831C23.8158 30.3003 23.75 30.4592 23.75 30.625V32.5H21.875V29.375H20.625V32.5H19.375V30.625C19.375 30.4592 19.3092 30.3003 19.1919 30.1831C19.0747 30.0659 18.9158 30 18.75 30H18.125V26.875H16.875V30H15C14.5132 30.0019 14.0336 30.1176 13.5995 30.3379C13.1655 30.5582 12.7889 30.877 12.5 31.2688C12.2111 30.877 11.8345 30.5582 11.4005 30.3379C10.9664 30.1176 10.4868 30.0019 10 30H8.125V26.875H6.875V30H6.25C6.08424 30 5.92527 30.0659 5.80806 30.1831C5.69085 30.3003 5.625 30.4592 5.625 30.625V32.5H4.375V27.4188C4.37535 26.8182 4.54811 26.2305 4.87273 25.7252C5.19735 25.22 5.66019 24.8186 6.20625 24.5688L8.80625 23.3875L10.175 24.8063C10.2317 24.8673 10.3003 24.916 10.3767 24.9494C10.453 24.9827 10.5354 24.9999 10.6187 25H10.625C10.7907 24.9988 10.9496 24.9339 11.0687 24.8188L12.5 23.3813L13.9313 24.8188C14.0504 24.9339 14.2093 24.9988 14.375 25H14.3813C14.4646 24.9999 14.547 24.9827 14.6233 24.9494C14.6997 24.916 14.7683 24.8673 14.825 24.8063L16.1937 23.3875L17.8688 24.15L18.3812 23.0125L15 21.475V19.95C15.5728 19.6164 16.0741 19.1731 16.4752 18.6454C16.8763 18.1178 17.1693 17.5161 17.3375 16.875H17.5C17.9968 16.8735 18.4729 16.6755 18.8242 16.3242C19.1755 15.9729 19.3735 15.4968 19.375 15C19.375 14.5027 19.1775 14.0258 18.8258 13.6742C18.4742 13.3225 17.9973 13.125 17.5 13.125V9.61875L19.375 8.99375V11.875H20.625V8.125C20.624 7.99429 20.5827 7.86707 20.5066 7.76077C20.4305 7.65448 20.3234 7.57431 20.2 7.53125L12.7 5.03125C12.5703 4.98744 12.4297 4.98744 12.3 5.03125L4.8 7.53125C4.67496 7.57235 4.56608 7.65188 4.4889 7.7585C4.41171 7.86512 4.37016 7.99338 4.37016 8.125C4.37016 8.25663 4.41171 8.38489 4.4889 8.49151C4.56608 8.59813 4.67496 8.67765 4.8 8.71875L7.5 9.61875V13.125C7.00272 13.125 6.52581 13.3225 6.17417 13.6742C5.82254 14.0258 5.625 14.5027 5.625 15C5.62648 15.4968 5.8245 15.9729 6.17581 16.3242C6.52712 16.6755 7.00318 16.8735 7.5 16.875H7.6625C7.83067 17.5161 8.1237 18.1178 8.52482 18.6454C8.92593 19.1731 9.42724 19.6164 10 19.95V21.475L5.69375 23.4313C4.92871 23.7802 4.27994 24.3414 3.82458 25.0483C3.36921 25.7551 3.1264 26.5779 3.125 27.4188V32.5H1.875C1.70924 32.5 1.55027 32.5659 1.43306 32.6831C1.31585 32.8003 1.25 32.9592 1.25 33.125V35.625C1.25 35.7908 1.31585 35.9497 1.43306 36.0669C1.55027 36.1842 1.70924 36.25 1.875 36.25H3.125V38.125C3.125 38.2908 3.19085 38.4497 3.30806 38.5669C3.42527 38.6842 3.58424 38.75 3.75 38.75H36.25C36.4158 38.75 36.5747 38.6842 36.6919 38.5669C36.8092 38.4497 36.875 38.2908 36.875 38.125V36.25H38.125C38.2908 36.25 38.4497 36.1842 38.5669 36.0669C38.6842 35.9497 38.75 35.7908 38.75 35.625V33.125C38.75 32.9592 38.6842 32.8003 38.5669 32.6831C38.4497 32.5659 38.2908 32.5 38.125 32.5V32.5ZM7.5 15.625C7.33424 15.625 7.17527 15.5592 7.05806 15.4419C6.94085 15.3247 6.875 15.1658 6.875 15C6.87427 14.9166 6.89114 14.8339 6.92453 14.7575C6.95792 14.681 7.00706 14.6124 7.06875 14.5563C7.12411 14.4978 7.19104 14.4514 7.26529 14.4202C7.33954 14.389 7.41947 14.3736 7.5 14.375V15.625ZM10.6313 23.4813L10.0125 22.8375L10.6125 22.5688L11.2375 22.8813L10.6313 23.4813ZM13.75 21.4875L12.975 21.875H12.025L11.25 21.4875V20.4625C12.0692 20.6792 12.9308 20.6792 13.75 20.4625V21.4875ZM14.3687 23.4813L13.7625 22.8813L14.3875 22.5688L14.9875 22.8375L14.3687 23.4813ZM16.25 11.875H8.75V10.0313L12.3 11.2188C12.4301 11.2604 12.5699 11.2604 12.7 11.2188L16.25 10.0313V11.875ZM17.9437 14.5688C18.0022 14.6241 18.0486 14.691 18.0798 14.7653C18.111 14.8395 18.1264 14.9195 18.125 15C18.125 15.1658 18.0592 15.3247 17.9419 15.4419C17.8247 15.5592 17.6658 15.625 17.5 15.625V14.375C17.5834 14.3743 17.6661 14.3911 17.7425 14.4245C17.819 14.4579 17.8876 14.5071 17.9437 14.5688V14.5688ZM6.975 8.125L12.5 6.28125L18.025 8.125L12.5 9.96875L6.975 8.125ZM8.75 15.625V13.125H16.25V15.625C16.25 16.6196 15.8549 17.5734 15.1517 18.2767C14.4484 18.9799 13.4946 19.375 12.5 19.375C11.5054 19.375 10.5516 18.9799 9.84835 18.2767C9.14509 17.5734 8.75 16.6196 8.75 15.625V15.625ZM21.25 26.875C21.0842 26.875 20.9253 26.8092 20.8081 26.6919C20.6908 26.5747 20.625 26.4158 20.625 26.25V18.125C20.625 17.9592 20.6908 17.8003 20.8081 17.6831C20.9253 17.5659 21.0842 17.5 21.25 17.5H35C35.1658 17.5 35.3247 17.5659 35.4419 17.6831C35.5592 17.8003 35.625 17.9592 35.625 18.125V26.25C35.625 26.4158 35.5592 26.5747 35.4419 26.6919C35.3247 26.8092 35.1658 26.875 35 26.875H30.625V24.375C30.625 24.2092 30.5592 24.0503 30.4419 23.9331C30.3247 23.8159 30.1658 23.75 30 23.75H26.25C26.0842 23.75 25.9253 23.8159 25.8081 23.9331C25.6908 24.0503 25.625 24.2092 25.625 24.375V26.875H21.25ZM29.375 25V30H26.875V25H29.375ZM25 31.25H31.25V32.5H25V31.25ZM15 31.25H18.125V32.5H13.2313C13.3617 32.135 13.6015 31.8191 13.918 31.5954C14.2346 31.3717 14.6124 31.2511 15 31.25V31.25ZM6.875 31.25H10C10.3876 31.2511 10.7654 31.3717 11.082 31.5954C11.3985 31.8191 11.6383 32.135 11.7687 32.5H6.875V31.25ZM35.625 37.5H4.375V36.25H35.625V37.5ZM37.5 35H2.5V33.75H37.5V35Z" fill="#00B2CA"/>
<path d="M10 14.375H11.25V15.625H10V14.375Z" fill="#00B2CA"/>
<path d="M13.75 14.375H15V15.625H13.75V14.375Z" fill="#00B2CA"/>
<path d="M38.125 1.25H32.5C32.1439 1.25067 31.792 1.32805 31.4685 1.47688C31.1449 1.62572 30.8572 1.84251 30.625 2.1125C30.3928 1.84251 30.1051 1.62572 29.7815 1.47688C29.458 1.32805 29.1061 1.25067 28.75 1.25H23.125C22.9592 1.25 22.8003 1.31585 22.6831 1.43306C22.5658 1.55027 22.5 1.70924 22.5 1.875V14.375C22.5 14.5408 22.5658 14.6997 22.6831 14.8169C22.8003 14.9342 22.9592 15 23.125 15H38.125C38.2908 15 38.4497 14.9342 38.5669 14.8169C38.6842 14.6997 38.75 14.5408 38.75 14.375V1.875C38.75 1.70924 38.6842 1.55027 38.5669 1.43306C38.4497 1.31585 38.2908 1.25 38.125 1.25V1.25ZM23.75 13.75V12.5H28.75C29.0812 12.501 29.3986 12.633 29.6328 12.8672C29.867 13.1014 29.999 13.4188 30 13.75H23.75ZM30 11.6C29.6226 11.3727 29.1906 11.2517 28.75 11.25H23.75V2.5H28.75C29.0812 2.50099 29.3986 2.633 29.6328 2.86721C29.867 3.10142 29.999 3.41878 30 3.75V11.6ZM37.5 13.75H31.25C31.251 13.4188 31.383 13.1014 31.6172 12.8672C31.8514 12.633 32.1688 12.501 32.5 12.5H37.5V13.75ZM37.5 11.25H32.5C32.0594 11.2517 31.6274 11.3727 31.25 11.6V3.75C31.251 3.41878 31.383 3.10142 31.6172 2.86721C31.8514 2.633 32.1688 2.50099 32.5 2.5H37.5V11.25Z" fill="#00B2CA"/>
<path d="M25 6.25H28.75V7.5H25V6.25Z" fill="#00B2CA"/>
<path d="M25 3.75H28.75V5H25V3.75Z" fill="#00B2CA"/>
<path d="M32.5 3.75H36.25V5H32.5V3.75Z" fill="#00B2CA"/>
<path d="M25 8.75H28.75V10H25V8.75Z" fill="#00B2CA"/>
<path d="M32.5 6.25H36.25V7.5H32.5V6.25Z" fill="#00B2CA"/>
<path d="M32.5 8.75H36.25V10H32.5V8.75Z" fill="#00B2CA"/>
</svg>
