<svg width="40" height="40" viewBox="0 0 40 40" fill="none" xmlns="http://www.w3.org/2000/svg">
<path d="M35.4166 30.8334V37.5C35.4166 37.9602 35.0435 38.3334 34.5833 38.3334H7.91664C7.45641 38.3334 7.08328 37.9602 7.08328 37.5V30.8334H5.41664V37.5C5.41664 38.8807 6.53594 40 7.91664 40H34.5833C35.964 40 37.0833 38.8807 37.0833 37.5V30.8334H35.4166V30.8334Z" fill="#00B2CA"/>
<path d="M36.8391 6.91086L30.1725 0.244141C30.0163 0.0878906 29.8043 0 29.5834 0H24.5834V1.66664H29.2384L35.4167 7.845V17.5H37.0834V7.5C37.0833 7.27898 36.9955 7.06711 36.8391 6.91086Z" fill="#00B2CA"/>
<path d="M31.25 6.66664C30.7898 6.66664 30.4166 6.29352 30.4166 5.83328V0.833282H28.75V5.83328C28.75 7.21399 29.8693 8.33328 31.25 8.33328H32.9166V6.66664H31.25Z" fill="#00B2CA"/>
<path d="M21.25 10.8334C21.25 15.8959 17.1459 20 12.0834 20C7.02078 20 2.91664 15.8959 2.91664 10.8334C2.91664 5.77078 7.0207 1.66664 12.0834 1.66664V0C6.10023 0 1.25 4.85023 1.25 10.8334C1.25 16.8165 6.10023 21.6667 12.0834 21.6667C18.0636 21.6598 22.9098 16.8136 22.9167 10.8334H21.25Z" fill="#00B2CA"/>
<path d="M34.5833 24.1666H32.9166V27.5H34.5833V24.1666Z" fill="#00B2CA"/>
<path d="M37.9167 23.3334H6.25C6.08547 23.3336 5.92461 23.3823 5.7875 23.4734L3.2875 25.14C3.19601 25.201 3.1175 25.2795 3.05648 25.371C2.80117 25.7539 2.90461 26.2713 3.2875 26.5266L5.7875 28.1933C5.92461 28.2843 6.08547 28.333 6.25 28.3333H37.9167C38.3769 28.3333 38.75 27.9602 38.75 27.4999V24.1666C38.75 23.7064 38.3769 23.3334 37.9167 23.3334ZM37.0834 26.6666H6.5L5.25 25.8333L6.5 25H37.0834V26.6666Z" fill="#00B2CA"/>
<path d="M35.4166 20H22.9166V21.6666H34.5833V24.1666H36.25V20.8333C36.25 20.3731 35.8769 20 35.4166 20Z" fill="#00B2CA"/>
<path d="M13.75 5H10.4166C9.03594 5 7.91664 6.1193 7.91664 7.5V15.8334H9.58328V7.5C9.58328 7.03977 9.95641 6.66664 10.4166 6.66664H13.75C14.2102 6.66664 14.5834 7.03977 14.5834 7.5V15.8334H16.25V7.5C16.25 6.1193 15.1307 5 13.75 5Z" fill="#00B2CA"/>
<path d="M15.4166 10H8.75V11.6666H15.4166V10Z" fill="#00B2CA"/>
<path d="M17.9167 30.8334H9.58336V32.5H17.9167V30.8334Z" fill="#00B2CA"/>
<path d="M11.25 34.1666H9.58336V35.8333H11.25V34.1666Z" fill="#00B2CA"/>
<path d="M14.5833 34.1666H12.9166V35.8333H14.5833V34.1666Z" fill="#00B2CA"/>
<path d="M21.25 0.833359H19.5834V7.5H21.25V0.833359Z" fill="#00B2CA"/>
<path d="M23.75 3.33336H17.0834V5H23.75V3.33336Z" fill="#00B2CA"/>
</svg>
