<?xml version="1.0"?>
<svg xmlns="http://www.w3.org/2000/svg" height="512px" viewBox="0 0 60 60" width="512px" class=""><g><g id="Page-1" fill="none" fill-rule="evenodd"><g id="021---Split-Screen" fill="rgb(0,0,0)" fill-rule="nonzero" transform="translate(-1)"><path id="Shape" d="m58 0h-54c-1.70524172.05441563-3.04599736 1.47651044-3 3.182v43.636c-.04599736 1.7054896 1.29475828 3.1275844 3 3.182h17.382l-2 4h-3.382c-1.6568542 0-3 1.3431458-3 3s1.3431458 3 3 3h30c1.6568542 0 3-1.3431458 3-3s-1.3431458-3-3-3h-3.382l-2-4h17.382c1.7052417-.0544156 3.0459974-1.4765104 3-3.182v-43.636c.0459974-1.70548956-1.2947583-3.12758437-3-3.182zm1 3.182v24.818h-9.338c-.1641822-1.1206946-.4057598-2.2286772-.723-3.316-.1360719-.4085428-.5183926-.6841037-.949-.684h-1v-1c0-.5522847-.4477153-1-1-1s-1 .4477153-1 1v1h-1c-.4302393.0003267-.8120445.2758064-.948.684-.3173614 1.0872919-.5589409 2.195283-.723 3.316h-10.319v-26h26c.5966179.06161524 1.038076.58341866 1 1.182zm-41.745 22.818c.6715577 3.4101385 1.1662189 6.8527406 1.482 10.314l-2.02-2.021c-.3904999-.3903819-1.0235001-.3903819-1.414 0l-2.02 2.02c.3148898-3.4610329.8095578-6.9033482 1.482-10.313zm.345 12h-3.176l1.586-1.586zm-6.586.975c-.015.588-.01 2.02 0 3.025h-8.014v-12h9.033c-.572 4.038-.994 8.639-1.023 8.975zm2 3.025c0-.612-.006-1.378-.006-2h6.02v2zm8-3.09c-.027-.294-.448-4.878-1.019-8.91h10.005v12h-8.986c.005-1.006.01-2.445-.008-3.09zm10.986-8.91h10.013c-.572 4.038-.993 8.639-1.022 8.975-.015.588-.01 2.02-.005 3.025h-8.986zm15.235-4c.6719179 3.4101166 1.1669131 6.8527202 1.483 10.314l-2.018-2.021c-.3904999-.3903819-1.0235001-.3903819-1.414 0l-2.019 2.02c.3140872-3.4609016.8074162-6.9031895 1.478-10.313zm.341 12h-3.176l1.586-1.586zm-4.59 4c0-.612-.007-1.378-.006-2h6.02c0 .634 0 1.394-.005 2zm8-3.09c-.027-.294-.447-4.878-1.018-8.91h9.032v12h-8c0-1.006 0-2.445-.014-3.09zm-46.986-36.91h26v26h-10.319c-.1641822-1.1206946-.4057598-2.2286772-.723-3.316-.1359555-.4081936-.5177607-.6836733-.948-.684h-1v-1c0-.5522847-.4477153-1-1-1s-1 .4477153-1 1v1h-1c-.4306074-.0001037-.8129281.2754572-.949.684-.3173614 1.0872919-.5589409 2.195283-.723 3.316h-9.338v-24.818c-.03807599-.59858134.40338206-1.12038476 1-1.182zm43 55c0 .5522847-.4477153 1-1 1h-30c-.5522847 0-1-.4477153-1-1s.4477153-1 1-1h30c.5522847 0 1 .4477153 1 1zm-6.618-3h-18.764l2-4h14.764zm17.618-6h-54c-.59661794-.0616152-1.03807599-.5834187-1-1.182v-2.818h56v2.818c.038076.5985813-.4033821 1.1203848-1 1.182z" data-original="#000000" class="active-path" data-old_color="#000000" fill="#00B2CA"/><path id="Shape" d="m6 6h21c.5522847 0 1-.44771525 1-1s-.4477153-1-1-1h-21c-.55228475 0-1 .44771525-1 1s.44771525 1 1 1z" data-original="#000000" class="active-path" data-old_color="#000000" fill="#00B2CA"/><path id="Shape" d="m35 6h21c.5522847 0 1-.44771525 1-1s-.4477153-1-1-1h-21c-.5522847 0-1 .44771525-1 1s.4477153 1 1 1z" data-original="#000000" class="active-path" data-old_color="#000000" fill="#00B2CA"/></g></g></g> </svg>
