<svg width="40" height="40" viewBox="0 0 40 40" fill="none" xmlns="http://www.w3.org/2000/svg">
<g clip-path="url(#clip0)">
<path d="M36.6667 38C36.6667 38.3682 36.3682 38.6667 36 38.6667H29.3333V36.3867C29.3268 34.2845 27.9215 32.4437 25.8952 31.8835L22 30.8239V29.8148C23.2487 28.9453 23.9951 27.5215 24 26V24.738C24.1699 24.6602 24.2773 24.6048 24.2979 24.5967C24.5241 24.4837 24.6667 24.2526 24.6667 24V20L28.2393 18.626C28.4974 18.5273 28.668 18.2796 28.668 18.0033C28.668 17.7269 28.4974 17.4795 28.2393 17.3805L19.5726 14.0472C19.4186 13.9886 19.248 13.9886 19.0941 14.0472L10.4274 17.3805C10.1709 17.4792 10.0013 17.7253 10 18V21.0573L8.19531 22.862L9.13802 23.8047L10 22.9427V24H11.3333V22.9427L12.1953 23.8047L13.138 22.862L11.3333 21.0573V18.9707L14 20V24C13.9987 24.2539 14.1416 24.4867 14.3688 24.5999C14.3893 24.61 14.4967 24.6634 14.6667 24.7412V26C14.6549 27.526 15.4049 28.9577 16.6667 29.8167V30.8239L12.7692 31.8841C10.7441 32.4447 9.33952 34.2852 9.33333 36.3867V38.6667H2.66667C2.2985 38.6667 2 38.3682 2 38V12H20.6667V10.6667H2V7.33333C2 6.96517 2.2985 6.66667 2.66667 6.66667H20.6667V5.33333H2.66667C1.56217 5.33333 0.666667 6.22884 0.666667 7.33333V38C0.666667 39.1045 1.56217 40 2.66667 40H36C37.1045 40 38 39.1045 38 38V13.3333H36.6667V38ZM18 31.3333V30.4668C18.8688 30.734 19.7979 30.734 20.6667 30.4668V31.3333C20.6689 31.5244 20.7536 31.7051 20.8994 31.8288L19.3333 33.1335L17.7673 31.8294C17.9131 31.7057 17.998 31.5247 18 31.3333ZM19.3333 15.3805L26.1426 18L19.3333 20.6195L12.5241 18L19.3333 15.3805ZM19.0941 21.9561C19.248 22.0146 19.4186 22.0146 19.5726 21.9561L23.3333 20.5094V23.5758C22.0775 24.18 20.722 24.5498 19.3333 24.6667C17.9447 24.5488 16.5892 24.179 15.3333 23.5752V20.5088L19.0941 21.9561ZM16 26V25.2845C17.0641 25.7048 18.1904 25.9466 19.3333 26C20.4762 25.9466 21.6025 25.7048 22.6667 25.2845V26C22.665 27.1911 22.028 28.291 20.9954 28.8851C19.9629 29.4792 18.6917 29.4769 17.6615 28.8792C17.4098 28.7363 17.1794 28.5592 16.9759 28.3532C16.3477 27.7321 15.9958 26.8838 16 26ZM10.6667 36.3867C10.6715 34.8854 11.6751 33.5706 13.1221 33.1699L16.2666 32.3148L18.9066 34.5146C19.154 34.7207 19.5127 34.7207 19.7601 34.5146L22.4001 32.3148L25.5426 33.1693C26.9902 33.5697 27.9945 34.8848 28 36.3867V38.6667H26V36H24.6667V38.6667H14V36H12.6667V38.6667H10.6667V36.3867Z" fill="#00B2CA"/>
<path d="M4.66667 8H6V9.33333H4.66667V8Z" fill="#00B2CA"/>
<path d="M7.33333 8H8.66667V9.33333H7.33333V8Z" fill="#00B2CA"/>
<path d="M10 8H11.3333V9.33333H10V8Z" fill="#00B2CA"/>
<path d="M37.3333 0H24C22.8955 0 22 0.895508 22 2V10C22 11.1045 22.8955 12 24 12H26V14.6667C26 14.9499 26.1787 15.2021 26.446 15.2959C26.5169 15.3203 26.5915 15.333 26.6667 15.3333C26.8691 15.3333 27.0609 15.2415 27.1872 15.0833L29.6533 12H37.3333C38.4378 12 39.3333 11.1045 39.3333 10V2C39.3333 0.895508 38.4378 0 37.3333 0ZM38 10C38 10.3682 37.7015 10.6667 37.3333 10.6667H29.3333C29.1309 10.6667 28.9391 10.7585 28.8128 10.9167L27.3333 12.7659V11.3333C27.3333 10.9652 27.0348 10.6667 26.6667 10.6667H24C23.6318 10.6667 23.3333 10.3682 23.3333 10V2C23.3333 1.63184 23.6318 1.33333 24 1.33333H37.3333C37.7015 1.33333 38 1.63184 38 2V10Z" fill="#00B2CA"/>
<path d="M26 2.66667H35.3333V4H26V2.66667Z" fill="#00B2CA"/>
<path d="M26 5.33333H35.3333V6.66667H26V5.33333Z" fill="#00B2CA"/>
<path d="M26 8H35.3333V9.33333H26V8Z" fill="#00B2CA"/>
</g>
<defs>
<clipPath id="clip0">
<rect width="40" height="40" fill="white"/>
</clipPath>
</defs>
</svg>
