<svg width="32" height="32" viewBox="0 0 32 32" fill="none" xmlns="http://www.w3.org/2000/svg">
<path fill-rule="evenodd" clip-rule="evenodd" d="M10.6666 5.33333C10.6666 2.38781 13.0545 0 16 0C18.9455 0 21.3333 2.38781 21.3333 5.33333V14.6667C21.3333 17.6122 18.9455 20 16 20C13.0545 20 10.6666 17.6122 10.6666 14.6667V5.33333ZM16 2.66667C14.5272 2.66667 13.3333 3.86057 13.3333 5.33333V14.6667C13.3333 16.1394 14.5272 17.3333 16 17.3333C17.4727 17.3333 18.6666 16.1394 18.6666 14.6667V5.33333C18.6666 3.86057 17.4727 2.66667 16 2.66667ZM6.66665 12C7.40303 12 7.99998 12.597 7.99998 13.3333V14.6667C7.99998 19.0849 11.5817 22.6667 16 22.6667C20.4183 22.6667 24 19.0849 24 14.6667V13.3333C24 12.597 24.5969 12 25.3333 12C26.0697 12 26.6666 12.597 26.6666 13.3333V14.6667C26.6666 20.1062 22.5951 24.5947 17.3333 25.2508V29.3333H20C20.7364 29.3333 21.3333 29.9303 21.3333 30.6667C21.3333 31.403 20.7364 32 20 32H12C11.2636 32 10.6666 31.403 10.6666 30.6667C10.6666 29.9303 11.2636 29.3333 12 29.3333H14.6666V25.2508C9.4049 24.5947 5.33331 20.1062 5.33331 14.6667V13.3333C5.33331 12.597 5.93027 12 6.66665 12Z" fill="#293644"/>
</svg>
