<svg width="32" height="32" viewBox="0 0 32 32" fill="none" xmlns="http://www.w3.org/2000/svg">
<path fill-rule="evenodd" clip-rule="evenodd" d="M16 6.66667C10.764 6.66667 6.00057 8.67699 2.43458 11.9703C1.89361 12.4699 1.05006 12.4364 0.55045 11.8954C0.0508447 11.3544 0.0843784 10.5109 0.625349 10.0113C4.66454 6.28093 10.0674 4 16 4C21.9326 4 27.3355 6.28093 31.3747 10.0113C31.9156 10.5109 31.9492 11.3544 31.4496 11.8954C30.95 12.4364 30.1064 12.4699 29.5654 11.9703C25.9995 8.67699 21.236 6.66667 16 6.66667ZM16 13.3333C12.5091 13.3333 9.33415 14.6731 6.95647 16.869C6.4155 17.3686 5.57195 17.3351 5.07234 16.7941C4.57274 16.2531 4.60627 15.4096 5.14724 14.91C7.99813 12.2771 11.8125 10.6667 16 10.6667C20.1875 10.6667 24.0019 12.2771 26.8528 14.91C27.3938 15.4096 27.4273 16.2531 26.9277 16.7941C26.4281 17.3351 25.5845 17.3686 25.0436 16.869C22.6659 14.6731 19.4909 13.3333 16 13.3333ZM16 20C14.2542 20 12.6677 20.6693 11.4784 21.7677C10.9374 22.2673 10.0938 22.2338 9.59423 21.6928C9.09463 21.1519 9.12816 20.3083 9.66913 19.8087C11.3317 18.2732 13.5576 17.3333 16 17.3333C18.4424 17.3333 20.6683 18.2733 22.3309 19.8087C22.8719 20.3083 22.9054 21.1519 22.4058 21.6928C21.9062 22.2338 21.0626 22.2673 20.5217 21.7677C19.3323 20.6693 17.7458 20 16 20ZM13.3334 26.6667C13.3334 25.1939 14.5273 24 16 24C17.4728 24 18.6667 25.1939 18.6667 26.6667C18.6667 28.1394 17.4728 29.3333 16 29.3333C14.5273 29.3333 13.3334 28.1394 13.3334 26.6667Z" fill="#293644"/>
</svg>
