<svg width="32" height="32" viewBox="0 0 32 32" fill="none" xmlns="http://www.w3.org/2000/svg">
<path d="M27.2451 4.64697C24.239 1.6521 20.24 0.00170899 15.9839 0C11.7373 0 7.73193 1.64893 4.70605 4.64307C1.6748 7.64233 0.00390625 11.6282 0 15.8518V15.8567V15.8596C0.000488281 18.416 0.672119 20.9949 1.94702 23.3489L0.0437012 32L8.79443 30.0095C11.0107 31.1265 13.4836 31.7153 15.9778 31.7163H15.9841C20.23 31.7163 24.2354 30.0671 27.2617 27.0728C30.2957 24.071 31.9673 20.0903 31.9692 15.864C31.9705 11.6675 30.293 7.68384 27.2451 4.64697ZM15.9839 29.2188H15.9783C13.7388 29.2178 11.5198 28.6555 9.56152 27.5923L9.14771 27.3677L3.32886 28.6912L4.59277 22.947L4.34912 22.5269C3.1377 20.4377 2.49756 18.1316 2.49756 15.8569C2.5022 8.49438 8.55151 2.49756 15.9834 2.49756C19.5737 2.49902 22.9473 3.89087 25.4824 6.41626C28.0559 8.98071 29.4727 12.3357 29.4714 15.8633C29.4685 23.2275 23.418 29.2188 15.9839 29.2188Z" fill="#25D366"/>
<path d="M11.6345 8.86646H10.9338C10.6899 8.86646 10.2939 8.95776 9.95898 9.32227C9.62378 9.68701 8.6792 10.5686 8.6792 12.3616C8.6792 14.1545 9.9895 15.887 10.1721 16.1304C10.355 16.3735 12.7014 20.1704 16.4177 21.6311C19.5063 22.845 20.135 22.6035 20.8052 22.5427C21.4756 22.4822 22.9685 21.6614 23.2732 20.8105C23.5779 19.9597 23.5779 19.2302 23.4866 19.0779C23.395 18.926 23.1511 18.835 22.7856 18.6528C22.4199 18.4705 20.6279 17.574 20.2927 17.4521C19.9575 17.3308 19.7139 17.27 19.47 17.635C19.2261 17.9993 18.5081 18.842 18.2947 19.0852C18.0815 19.3286 17.8682 19.3591 17.5024 19.1768C17.1367 18.9939 15.9712 18.6023 14.5745 17.3611C13.4873 16.395 12.7329 15.1631 12.5195 14.7983C12.3064 14.4338 12.4968 14.2366 12.6802 14.0547C12.8445 13.8916 13.0664 13.6685 13.2493 13.4558C13.4319 13.2429 13.4839 13.0911 13.606 12.8479C13.7278 12.6047 13.6667 12.3918 13.5754 12.2097C13.4839 12.0273 12.7822 10.2253 12.457 9.50464H12.4573C12.1834 8.89771 11.895 8.8772 11.6345 8.86646Z" fill="#25D366"/>
</svg>
