<svg width="32" height="32" viewBox="0 0 32 32" fill="none" xmlns="http://www.w3.org/2000/svg">
<path fill-rule="evenodd" clip-rule="evenodd" d="M16 2.66667C10.109 2.66667 5.33335 7.4423 5.33335 13.3333C5.33335 16.8827 7.06564 20.0274 9.73672 21.9686C11.4953 23.2466 13.6577 24 16 24C18.3423 24 20.5047 23.2466 22.2633 21.9686C24.9344 20.0274 26.6667 16.8827 26.6667 13.3333C26.6667 7.4423 21.8911 2.66667 16 2.66667ZM2.66669 13.3333C2.66669 5.96954 8.63622 0 16 0C23.3638 0 29.3334 5.96954 29.3334 13.3333C29.3334 17.2148 27.6738 20.7087 25.0295 23.1439L27.0572 25.1716C29.5771 27.6914 27.7924 32 24.2288 32H7.77126C4.20763 32 2.42297 27.6914 4.94283 25.1716L6.97054 23.1439C4.32622 20.7087 2.66669 17.2148 2.66669 13.3333ZM9.12565 24.76L6.82845 27.0572C5.98849 27.8971 6.58338 29.3333 7.77126 29.3333H24.2288C25.4167 29.3333 26.0115 27.8971 25.1716 27.0572L22.8744 24.76C20.8665 25.9702 18.5132 26.6667 16 26.6667C13.4869 26.6667 11.1335 25.9702 9.12565 24.76ZM16 8C13.0545 8 10.6667 10.3878 10.6667 13.3333C10.6667 14.0697 10.0697 14.6667 9.33335 14.6667C8.59697 14.6667 8.00002 14.0697 8.00002 13.3333C8.00002 8.91506 11.5817 5.33333 16 5.33333C16.7364 5.33333 17.3334 5.93029 17.3334 6.66667C17.3334 7.40305 16.7364 8 16 8ZM13.3334 13.3333C13.3334 11.8606 14.5273 10.6667 16 10.6667C17.4728 10.6667 18.6667 11.8606 18.6667 13.3333C18.6667 14.8061 17.4728 16 16 16C14.5273 16 13.3334 14.8061 13.3334 13.3333Z" fill="#252631"/>
</svg>
