<svg width="18" height="15" viewBox="0 0 18 15" fill="none" xmlns="http://www.w3.org/2000/svg">
<path d="M16.1367 3.75001C16.8632 3.19712 17.4843 2.53606 18 1.76683C17.2968 2.07933 16.5937 2.28366 15.8906 2.37981C16.6875 1.875 17.2265 1.17789 17.5078 0.288464C16.7812 0.721156 15.996 1.02163 15.1523 1.18991C14.8007 0.829329 14.3964 0.54087 13.9394 0.324519C13.4824 0.108173 12.9843 0 12.4453 0C11.789 0 11.1797 0.168269 10.6172 0.504808C10.0547 0.841346 9.60935 1.30409 9.28122 1.89303C8.9531 2.48197 8.78903 3.11298 8.78903 3.78605C8.78903 4.07452 8.81247 4.36298 8.85935 4.65144C7.35935 4.57933 5.94725 4.19471 4.62303 3.49759C3.29881 2.80048 2.17967 1.86298 1.26561 0.685092C0.914053 1.28605 0.738272 1.91706 0.738272 2.57812C0.738272 3.23918 0.890615 3.84615 1.1953 4.39903C1.49999 4.95192 1.89842 5.40865 2.39061 5.76923C1.80467 5.74519 1.25389 5.57692 0.73827 5.26442V5.33654C0.73827 6.22596 1.01952 7.01923 1.58202 7.71635C2.14452 8.41346 2.84764 8.85817 3.69139 9.05048C3.36327 9.12259 3.03514 9.15865 2.70702 9.15865C2.49608 9.15865 2.27343 9.14663 2.03905 9.12259C2.27343 9.86778 2.70116 10.4868 3.32225 10.9796C3.94334 11.4724 4.66405 11.7188 5.48436 11.7188C4.12499 12.8005 2.58983 13.3413 0.878904 13.3413C0.55078 13.3413 0.257814 13.3293 0 13.3053C1.71094 14.4351 3.59765 15 5.66014 15C7.81639 15 9.72654 14.4351 11.3906 13.3053C12.914 12.2957 14.0976 10.9375 14.9414 9.23077C15.7617 7.62019 16.1718 5.94951 16.1718 4.21874C16.1718 4.0024 16.1601 3.84615 16.1367 3.74999L16.1367 3.75001Z" fill="#778CA2"/>
</svg>
